<svg width="32" height="32" viewBox="0 0 32 32" fill="none" xmlns="http://www.w3.org/2000/svg">
<rect x="0.5" y="0.5" width="31" height="31" rx="15.5" fill="#14141A"/>
<g clip-path="url(#clip0_51_2407)">
<path d="M11.9121 10.0038C12.4861 10.1529 13.0678 10.2626 13.6386 10.4284C14.3829 10.6443 15.0912 10.9556 15.7831 11.3193C15.9937 11.4303 16.2153 11.5221 16.4368 11.5984C16.7304 11.6998 16.9825 11.8752 17.2499 12.0242C17.2619 12.0314 17.2761 12.0362 17.2848 12.0457C17.4954 12.2902 17.7901 12.3415 18.0575 12.4572C18.3805 12.5979 18.7232 12.7041 19.0146 12.9021C19.3605 13.1371 19.7709 13.2134 20.095 13.4961C20.2554 13.6356 20.4682 13.5712 20.6581 13.5187C20.8098 13.477 20.824 13.4829 20.7956 13.6475C20.7651 13.8253 20.752 13.9887 20.9048 14.1139C20.9397 14.1425 20.9506 14.1974 20.9583 14.2475C21.0205 14.6315 21.015 15.012 20.9135 15.3889C20.8786 15.5189 20.8153 15.6072 20.6898 15.6346C20.5959 15.6561 20.5086 15.7002 20.4322 15.7622C20.0917 16.0425 19.6988 16.2047 19.3016 16.3538C19.211 16.3884 19.1444 16.4373 19.103 16.5351C18.9633 16.8631 18.709 17.0683 18.4427 17.2567C18.3074 17.3533 18.195 17.4702 18.1186 17.6253C18.0771 17.7088 18.0149 17.7446 17.9298 17.7374C17.8326 17.7279 17.7682 17.7779 17.7191 17.8662C17.646 17.9962 17.5718 18.1262 17.491 18.2515C17.4092 18.3767 17.3044 18.4578 17.1505 18.4518C16.9596 18.4447 16.8886 18.6176 16.8297 18.7655C16.7708 18.9134 16.6867 19.0255 16.5754 19.121C16.379 19.2879 16.1738 19.4382 15.961 19.579C15.663 19.777 15.4077 20.037 15.1305 20.266C14.8795 20.4735 14.6317 20.687 14.3469 20.8444C14.1821 20.9351 14.0238 21.0436 13.9223 21.2237C13.8798 21.2989 13.8318 21.312 13.7696 21.2488C13.7095 21.1868 13.6353 21.1534 13.5567 21.1223C13.4083 21.0651 13.2752 21.0818 13.1519 21.1951C13.0711 21.2691 12.9772 21.3144 12.8692 21.3263C12.7742 21.337 12.7044 21.3931 12.6444 21.4742C12.5462 21.609 12.4392 21.7366 12.3421 21.8726C12.2875 21.9477 12.2493 21.9596 12.1816 21.8857C12.0354 21.7259 12.0234 21.7294 11.8706 21.894C11.7244 22.0503 11.6316 22.0348 11.5421 21.8332C11.505 21.7485 11.4734 21.6615 11.4384 21.5756C11.4253 21.5434 11.4166 21.5124 11.4264 21.4754C11.5399 21.0317 11.6785 20.6059 11.959 20.2469C12.2373 19.8915 12.5538 19.5718 12.7939 19.1806C12.8648 19.0649 12.9631 18.9743 13.0656 18.8943C13.1595 18.8216 13.249 18.75 13.2621 18.6105C13.2664 18.5687 13.2926 18.5318 13.3319 18.5294C13.4585 18.521 13.5164 18.4292 13.5753 18.3242C13.6124 18.2586 13.6692 18.2026 13.727 18.1572C14.0828 17.8841 14.3753 17.5299 14.7168 17.2388C15.0486 16.9562 15.4153 16.7319 15.7656 16.4803C16.4183 16.0127 17.1276 15.643 17.7442 15.1146C17.8774 15.0013 17.8763 15.0025 17.7202 14.9285C17.49 14.8188 17.3033 14.6518 17.1822 14.4097C17.1233 14.2928 17.048 14.2701 16.9497 14.3381C16.8188 14.4276 16.7031 14.4455 16.6027 14.2833C16.583 14.2511 16.535 14.2356 16.4968 14.2212C16.3822 14.1795 16.3048 14.0996 16.2524 13.9815C16.2294 13.929 16.1934 13.8825 16.1607 13.836C16.1138 13.7704 16.069 13.7597 16.0046 13.8253C15.8344 13.9994 15.7449 13.9934 15.5899 13.7966C15.5015 13.6845 15.4273 13.5605 15.3466 13.4412C15.2276 13.2635 15.0595 13.2372 14.9078 13.3792C14.8576 13.4257 14.8085 13.4317 14.7463 13.4197C14.3785 13.3506 14.1603 13.075 13.9747 12.7542C13.9049 12.6337 13.8481 12.5037 13.7412 12.4131C13.6975 12.3761 13.6528 12.3308 13.596 12.3463C13.3505 12.4119 13.1006 12.3248 12.8496 12.4C12.5942 12.4763 12.3552 12.2664 12.3104 11.9813C12.2962 11.8883 12.2831 11.7964 12.2515 11.7082C12.1871 11.5269 12.0943 11.3957 11.8935 11.3826C11.7637 11.3742 11.6392 11.3182 11.529 11.2359C11.4679 11.1893 11.4079 11.1357 11.3948 11.0569C11.3653 10.8721 11.2485 10.7778 11.1099 10.7111C10.9746 10.6466 10.9986 10.5238 11.0074 10.4093C11.0161 10.2972 11.1034 10.2972 11.1798 10.2841C11.3806 10.2507 11.5792 10.2137 11.7287 10.0384C11.7757 9.9835 11.8477 10.005 11.9121 10.0038Z" fill="#F6F4F4"/>
</g>
<rect x="0.5" y="0.5" width="31" height="31" rx="15.5" stroke="#F6F4F4"/>
<defs>
<clipPath id="clip0_51_2407">
<rect width="10" height="12" fill="white" transform="translate(11 10)"/>
</clipPath>
</defs>
</svg>
