<?xml version="1.0" encoding="utf-8"?>
<!-- Generator: Adobe Illustrator 27.6.1, SVG Export Plug-In . SVG Version: 6.00 Build 0)  -->
<svg version="1.1" id="Calque_1" xmlns="http://www.w3.org/2000/svg" xmlns:xlink="http://www.w3.org/1999/xlink" x="0px" y="0px"
	 viewBox="0 0 20 20" style="enable-background:new 0 0 20 20;" xml:space="preserve">
<style type="text/css">
	.st0{fill:#FFFFFF;}
</style>
<path class="st0" d="M10,7.7c3.2,0,6.4,0,9.6,0C20,7.7,20,7.7,20,8c0,2.6,0,5.1,0,7.7c0,2-1.5,3.5-3.5,3.5c-4.3,0-8.7,0-13,0
	c-2,0-3.5-1.5-3.5-3.5c0-2.6,0-5.2,0-7.7c0-0.3,0-0.3,0.3-0.3C3.6,7.7,6.8,7.7,10,7.7z M7.9,12.1c-0.2,0-0.3,0-0.5,0
	c-0.1,0-0.1,0-0.2,0c-0.3,0-0.6,0.2-0.7,0.5c-0.1,0.3,0,0.6,0.2,0.8c0.3,0.3,0.7,0.5,1,0.8C8,14.3,8.1,14.4,8,14.7
	c-0.1,0.4-0.3,0.7-0.4,1.1c0,0.1-0.1,0.3,0,0.4c0.1,0.6,0.7,0.8,1.2,0.4c0.4-0.3,0.7-0.5,1.1-0.8c0.1-0.1,0.2-0.1,0.4,0
	c0.3,0.3,0.7,0.5,1,0.8c0.4,0.2,0.7,0.3,1,0c0.3-0.2,0.4-0.5,0.2-0.9c-0.1-0.4-0.3-0.8-0.4-1.2c-0.1-0.2,0-0.3,0.1-0.4
	c0.4-0.3,0.7-0.5,1.1-0.8c0.3-0.2,0.4-0.5,0.3-0.8c-0.1-0.3-0.4-0.5-0.7-0.5c-0.4,0-0.9,0-1.3,0c-0.2,0-0.3-0.1-0.4-0.3
	c-0.1-0.4-0.2-0.8-0.4-1.2C10.6,10.2,10.3,10,10,10c-0.3,0-0.6,0.2-0.7,0.6c-0.1,0.4-0.3,0.8-0.4,1.2c0,0.2-0.1,0.2-0.3,0.2
	C8.3,12.1,8.1,12.1,7.9,12.1z"/>
<path class="st0" d="M10,6.9c-3.2,0-6.4,0-9.6,0C0,6.9,0,6.9,0,6.6c0-0.7,0-1.3,0.2-2C0.7,3.2,2,2.3,3.4,2.3c0.3,0,0.7,0,1,0
	c0.2,0,0.2,0.1,0.2,0.2c0,0.4,0,0.8,0,1.2C4.8,4.4,5.4,5,6.2,5c0.7,0,1.4-0.5,1.5-1.3c0.1-0.4,0-0.8,0-1.1c0-0.2,0-0.3,0.3-0.3
	c1.4,0,2.8,0,4.1,0c0.2,0,0.2,0.1,0.2,0.3c0,0.4,0,0.8,0,1.2C12.5,4.4,13.1,5,13.8,5c0.7,0,1.4-0.5,1.5-1.2c0.1-0.4,0-0.8,0-1.2
	c0-0.2,0-0.3,0.3-0.3c0.7,0,1.4-0.1,2,0.2C19.1,3,20,4.3,20,5.7c0,0.3,0,0.6,0,0.9c0,0.3,0,0.3-0.3,0.3c-0.9,0-1.8,0-2.8,0
	C14.6,6.9,12.3,6.9,10,6.9z"/>
<path class="st0" d="M6.9,2.5c0,0.3,0,0.7,0,1c0,0.4-0.3,0.8-0.8,0.8c-0.4,0-0.8-0.3-0.8-0.8c0-0.7,0-1.3,0-2c0-0.4,0.3-0.8,0.8-0.8
	c0.4,0,0.8,0.3,0.8,0.8c0,0,0,0,0,0C6.9,1.9,6.9,2.2,6.9,2.5z"/>
<path class="st0" d="M13.1,2.5c0-0.3,0-0.6,0-1c0-0.5,0.3-0.8,0.8-0.8c0.4,0,0.8,0.3,0.8,0.8c0,0.6,0,1.3,0,1.9
	c0,0.4-0.3,0.8-0.8,0.8c-0.4,0-0.8-0.3-0.8-0.8C13.1,3.2,13.1,2.8,13.1,2.5z"/>
</svg>
