<?xml version="1.0" encoding="utf-8"?>
<!-- Generator: Adobe Illustrator 27.6.1, SVG Export Plug-In . SVG Version: 6.00 Build 0)  -->
<svg version="1.1" id="Calque_1" xmlns="http://www.w3.org/2000/svg" xmlns:xlink="http://www.w3.org/1999/xlink" x="0px" y="0px"
	 viewBox="0 0 16 16" style="enable-background:new 0 0 16 16;" xml:space="preserve">
<style type="text/css">
	.st0{fill:#FFFFFF;}
</style>
<g>
	<path class="st0" d="M9.1,14.3c-0.2,0.1-0.4,0.2-0.6,0.4c-0.8,0.7-1.3,1.6-1.8,2.6c-0.4,0.9-0.7,1.8-1,2.7c0,0.1-0.1,0.2-0.1,0.2
		c-0.2,0.5-0.7,0.7-1.2,0.7c-0.5-0.1-0.8-0.6-0.7-1.1c0.3-2,1-4,2-5.7c0.3-0.5,0.7-1.1,0.7-1.7c0.2-0.9,0-1.7-0.5-2.6
		C5.5,9.1,5.1,8.3,4.8,7.5C3.9,5.2,4,2.9,4.8,0.6c0.2-0.6,0.7-0.7,1.2-0.6c0.4,0.1,0.7,0.6,0.6,1.1c-0.2,0.7-0.4,1.3-0.4,2
		C6,4,6.1,4.8,6.8,5.4c0.9,0.8,2.4,0.8,3.3-0.1c0.5-0.5,0.8-1.1,1.2-1.7s0.7-1.3,0.8-2c0.2-0.6,0.8-0.8,1.4-0.5
		c0.3,0.2,0.5,0.6,0.4,1c-0.2,1.1-0.7,2-1.2,2.9c-0.6,0.8-1.2,1.6-1.6,2.2c-0.2,0.3-0.2,0.5,0,0.8c0.7,0.7,0.9,1.6,1.1,2.6
		c0.2,1.6,0,3.3-0.3,4.9c-0.3,1.6-0.9,3.2-1.5,4.8c-0.2,0.5-0.5,0.7-1,0.7c-0.4,0-0.8-0.2-1-0.6c-0.1-0.2-0.1-0.5-0.1-0.7
		c0.3-1.1,0.6-2.1,0.7-3.2C9.1,15.8,9.1,15.1,9.1,14.3z"/>
	<path class="st0" d="M6.4,3c0-1.2,0.9-2.1,2.1-2.1s2.1,1,2.1,2.1s-1,2.1-2.1,2.1C7.3,5.2,6.4,4.3,6.4,3z"/>
	<path class="st0" d="M2.4,7.8C2.4,8.5,1.8,9,1.2,9C0.6,9,0,8.4,0,7.7c0-0.6,0.6-1.2,1.2-1.2C1.8,6.6,2.4,7.2,2.4,7.8z"/>
	<path class="st0" d="M3.3,10.5c-0.3,0-0.7-0.2-0.7-0.7c0-0.3,0.3-0.7,0.7-0.7C3.6,9.1,4,9.5,4,9.8C4,10.2,3.7,10.5,3.3,10.5z"/>
	<path class="st0" d="M15.9,14.4c0,0.4-0.3,0.7-0.7,0.7c-0.4,0-0.7-0.3-0.7-0.7c0-0.4,0.3-0.7,0.7-0.7C15.6,13.7,15.9,14,15.9,14.4z
		"/>
	<path class="st0" d="M2.1,12.5c0.2,0,0.3,0.2,0.3,0.4s0.1,0.4,0.3,0.4s0.4,0.1,0.4,0.3C3.3,13.9,3.1,14,2.9,14s-0.3,0.1-0.3,0.3
		c0,0.2-0.1,0.5-0.4,0.5c-0.2,0-0.3-0.2-0.3-0.4s-0.1-0.3-0.3-0.3S1,14,1,13.8c0-0.3,0.2-0.4,0.5-0.4c0.3,0,0.3-0.2,0.3-0.4
		C1.8,12.7,1.9,12.5,2.1,12.5z"/>
	<path class="st0" d="M13.9,9.3c-0.1-0.1-0.2-0.2-0.2-0.2c-0.2-0.2-0.3-0.4-0.1-0.7c0.2-0.2,0.5-0.2,0.7,0.1c0.2,0.3,0.4,0.2,0.7,0
		c0.2-0.2,0.4-0.3,0.7-0.1s0.2,0.5-0.1,0.7c-0.3,0.2-0.2,0.4,0,0.7c0.2,0.2,0.3,0.4,0.1,0.7c-0.2,0.2-0.5,0.2-0.7-0.1
		c-0.2-0.2-0.4-0.2-0.7,0c-0.2,0.2-0.4,0.3-0.7,0.1s-0.2-0.5,0.1-0.7C13.7,9.5,13.9,9.5,13.9,9.3z"/>
	<path class="st0" d="M1.6,1.8C1.8,1.8,1.9,2,1.9,2c0,0.2,0.1,0.2,0.2,0.2s0.2,0.1,0.2,0.2S2.3,2.8,2.1,2.8C1.9,2.8,1.8,2.9,1.9,3
		c0,0.2-0.1,0.2-0.2,0.2S1.4,3.2,1.4,3c0-0.2-0.1-0.3-0.3-0.2c-0.2,0-0.2-0.1-0.2-0.2s0.1-0.2,0.2-0.2c0.2,0,0.3-0.1,0.2-0.3
		C1.4,1.9,1.5,1.8,1.6,1.8z"/>
	<path class="st0" d="M16,6.5c0,0.2-0.1,0.2-0.2,0.2c-0.2,0-0.2,0.1-0.2,0.2s-0.1,0.2-0.2,0.2c-0.2,0-0.2-0.1-0.2-0.2
		S15,6.7,14.8,6.7c-0.2,0-0.2-0.1-0.2-0.2c0-0.2,0.1-0.2,0.2-0.2c0.2,0,0.2,0,0.2-0.2c0-0.2,0.1-0.2,0.2-0.2c0.2,0,0.2,0.1,0.2,0.2
		s0.1,0.2,0.2,0.2C15.9,6.3,16,6.4,16,6.5z"/>
</g>
</svg>
