<?xml version="1.0" encoding="utf-8"?>
<!-- Generator: Adobe Illustrator 27.6.1, SVG Export Plug-In . SVG Version: 6.00 Build 0)  -->
<svg version="1.1" id="Calque_1" xmlns="http://www.w3.org/2000/svg" xmlns:xlink="http://www.w3.org/1999/xlink" x="0px" y="0px"
	 viewBox="0 0 44 48" style="enable-background:new 0 0 44 48;" xml:space="preserve">
<style type="text/css">
	.st0{fill:none;stroke:#B29186;stroke-width:4;}
	.st1{fill:#B29186;}
	.st2{fill:#FFFFFF;filter:url(#Adobe_OpacityMaskFilter);}
	
		.st3{mask:url(#path-2-outside-1_262_607_00000012470551190939606590000013781600300883642810_);fill:none;stroke:#B29186;stroke-width:2;}
</style>
<path class="st0" d="M26.8,45.7h-0.1l-0.1,0c-6.5,1-12.2-0.7-16.4-4.3c-4.2-3.6-7.2-9.2-8-16.5C1.5,18.8,4.3,12,9,7.4
	c4.6-4.6,10.8-6.8,17.2-4.5c7,2.5,10.4,5.3,12.3,8.6c2,3.4,2.6,7.7,3.3,13.8c0.7,5.9,0.3,11-1.8,14.6C37.9,43.3,34.1,45.7,26.8,45.7
	z"/>
<path class="st1" d="M27.3,21.7c-0.2,0-0.6,0-0.9,0.1c-0.1,0-0.3,0-0.4,0c-0.2,0-0.3,0-0.5,0c-0.3,0-0.6,0-0.8,0c-0.1,0-0.2,0-0.4,0
	c-0.2,0-0.3,0-0.5,0c-0.1,0-0.3,0-0.5,0c-0.3,0-0.5,0-0.7,0l-0.2,0c-0.2,0-0.3,0-0.5,0l-0.3,0c0-0.1,0-0.2,0-0.4c0-0.1,0-0.2,0-0.4
	l0-0.4c0-0.2,0-0.4,0-0.6c0-0.2,0-0.4-0.1-0.5c0-0.1,0-0.3-0.1-0.4l-0.1-0.7c0-0.1,0-0.2,0-0.3c0-0.1,0-0.3,0-0.4l0-0.3
	c0-0.1,0-0.3,0-0.3c0-0.1,0-0.3,0.1-0.7c0-0.2,0.1-0.5,0.2-0.8c0.1-0.2,0.2-0.4,0.3-0.7c0.1-0.2,0.2-0.3,0.4-0.4l0.1-0.1
	c0.2-0.2,0.5-0.4,0.7-0.6c0.2-0.1,0.4-0.2,0.6-0.3c0.2-0.1,0.4-0.1,0.6-0.2c0.2,0,0.4-0.1,0.7-0.1c0.1,0,0.3,0,0.4,0
	c0.1,0,0.2,0,0.3,0l1.5-0.1c0.3,0,0.5-0.3,0.5-0.6c0-0.3-0.2-0.5-0.6-0.5l-1.5,0.1c-0.1,0-0.3,0-0.4,0c-0.1,0-0.2,0-0.3,0
	c-0.3,0-0.6,0.1-0.8,0.1c-0.3,0.1-0.6,0.1-0.8,0.2c-0.3,0.1-0.6,0.3-0.8,0.4c-0.3,0.2-0.6,0.5-1,0.8c-0.2,0.2-0.4,0.4-0.5,0.6
	c-0.2,0.3-0.3,0.6-0.4,0.9c-0.1,0.4-0.2,0.7-0.2,0.9c-0.1,0.5-0.1,0.8-0.1,1c0,0.1,0,0.2,0,0.3l0,0.3c0,0.1,0,0.2,0,0.3
	c0,0.1,0,0.3,0,0.4l0.1,0.7c0,0.2,0,0.4,0.1,0.5c0,0.1,0,0.3,0.1,0.4l0.1,1c0,0.1,0,0.3,0,0.4c0,0.1,0,0.3,0,0.4v0
	c-0.2,0-0.3,0-0.5,0.1L19.4,22c-0.1,0-0.2,0-0.3,0c-0.1,0-0.2,0-0.3,0c-0.1,0-0.2,0-0.3,0c-0.1,0-0.2,0-0.3,0c-0.1,0-0.3,0-0.4,0
	c-0.1,0-0.2,0-0.3,0c-0.3,0-0.5,0.3-0.5,0.6c0,0.3,0.2,0.5,0.5,0.5h0c0.1,0,0.2,0,0.3,0c0.1,0,0.2,0,0.3,0c0.1,0,0.2,0,0.3,0
	c0.1,0,0.3,0,0.4,0l0.3,0c0.1,0,0.2,0,0.4,0l0.7-0.1c0.2,0,0.3,0,0.4,0c0,0,0,0.1,0,0.1c0,0.1,0,0.2,0,0.4c0,0.1,0,0.3,0,0.4
	c0,0.1,0,0.2,0,0.4c0,0.1,0,0.3,0,0.4c0,0.1,0,0.3,0,0.4l0,0.4c0,0.1,0,0.3,0,0.4l0,0.4c0,0.1,0,0.3,0,0.4c0,0.1,0,0.2,0,0.3
	c0,0.1,0,0.3,0,0.4c0,0.1,0,0.2,0,0.3c0,0.2,0,0.3,0,0.5c0,0.1,0,0.2,0,0.4c0,0.1,0,0.2,0,0.4c0,0.1,0,0.3,0,0.4c0,0.1,0,0.2,0,0.4
	c0,0.1,0,0.2,0,0.3c0,0.1,0,0.3,0,0.5l0,0.8c0,0.1,0,0.3,0,0.4c0,0.1,0,0.2,0,0.3c0,0.1,0,0.2,0,0.3c0,0.2,0,0.3,0,0.5
	c0,0.1,0,0.3,0,0.4c0,0.1,0,0.2,0,0.4c0,0.1,0,0.3,0,0.4c0,0.1,0,0.2,0,0.3c0,0.1,0,0.2,0,0.3c0,0.1,0,0.2,0,0.4c0,0.2,0,0.3,0,0.4
	c0,0.1,0,0.2,0,0.2c0,0.3,0.3,0.5,0.5,0.5h0c0.3,0,0.5-0.3,0.5-0.6c0-0.1,0-0.2,0-0.3c0-0.1,0-0.2,0-0.3c0-0.1,0-0.2,0-0.3
	c0-0.1,0-0.3,0-0.4c0-0.1,0-0.2,0-0.4c0-0.1,0-0.2,0-0.3c0-0.1,0-0.3,0-0.4c0-0.1,0-0.3,0-0.4c0-0.1,0-0.2,0-0.4c0-0.1,0-0.3,0-0.4
	c0-0.2,0-0.3,0-0.5c0-0.1,0-0.2,0-0.3l0-0.8c0-0.1,0-0.3,0-0.4c0-0.1,0-0.3,0-0.4c0-0.1,0-0.3,0-0.4c0-0.1,0-0.2,0-0.3
	c0-0.1,0-0.3,0-0.4c0-0.1,0-0.2,0-0.3c0-0.1,0-0.2,0-0.3c0-0.1,0-0.3,0-0.4c0-0.2,0-0.4,0-0.5c0-0.1,0-0.2,0-0.2c0-0.1,0-0.3,0-0.4
	l0-0.4c0-0.1,0-0.3,0-0.4l0-0.4c0-0.1,0-0.2,0-0.3c0-0.2,0-0.3,0-0.5c0-0.1,0-0.3,0-0.4c0-0.1,0-0.2,0-0.4c0-0.1,0-0.2,0-0.3
	c0-0.1,0-0.1,0-0.2c0,0,0,0,0,0l0.3,0c0.1,0,0.3,0,0.4,0l0.3,0c0.2,0,0.4,0,0.7,0c0.2,0,0.4,0,0.5,0c0.2,0,0.3,0,0.5,0
	c0.1,0,0.2,0,0.3,0c0.2,0,0.5,0.1,0.9,0.1c0.2,0,0.4,0,0.6,0c0.1,0,0.2,0,0.4,0c0.4,0,0.7,0,1-0.1c0.3,0,0.5-0.3,0.5-0.6
	C27.9,21.9,27.6,21.6,27.3,21.7z"/>
<defs>
	<filter id="Adobe_OpacityMaskFilter" filterUnits="userSpaceOnUse" x="15.9" y="11" width="13" height="26">
		<feColorMatrix  type="matrix" values="1 0 0 0 0  0 1 0 0 0  0 0 1 0 0  0 0 0 1 0"/>
	</filter>
</defs>
<mask maskUnits="userSpaceOnUse" x="15.9" y="11" width="13" height="26" id="path-2-outside-1_262_607_00000012470551190939606590000013781600300883642810_">
	<rect x="15.9" y="11" class="st2" width="13" height="26"/>
	<path d="M27.3,21.7c-0.2,0-0.6,0-0.9,0.1c-0.1,0-0.3,0-0.4,0c-0.2,0-0.3,0-0.5,0c-0.3,0-0.6,0-0.8,0c-0.1,0-0.2,0-0.4,0
		c-0.2,0-0.3,0-0.5,0c-0.1,0-0.3,0-0.5,0c-0.3,0-0.5,0-0.7,0l-0.2,0c-0.2,0-0.3,0-0.5,0l-0.3,0c0-0.1,0-0.2,0-0.4c0-0.1,0-0.2,0-0.4
		l0-0.4c0-0.2,0-0.4,0-0.6c0-0.2,0-0.4-0.1-0.5c0-0.1,0-0.3-0.1-0.4l-0.1-0.7c0-0.1,0-0.2,0-0.3c0-0.1,0-0.3,0-0.4l0-0.3
		c0-0.1,0-0.3,0-0.3c0-0.1,0-0.3,0.1-0.7c0-0.2,0.1-0.5,0.2-0.8c0.1-0.2,0.2-0.4,0.3-0.7c0.1-0.2,0.2-0.3,0.4-0.4l0.1-0.1
		c0.2-0.2,0.5-0.4,0.7-0.6c0.2-0.1,0.4-0.2,0.6-0.3c0.2-0.1,0.4-0.1,0.6-0.2c0.2,0,0.4-0.1,0.7-0.1c0.1,0,0.3,0,0.4,0
		c0.1,0,0.2,0,0.3,0l1.5-0.1c0.3,0,0.5-0.3,0.5-0.6c0-0.3-0.2-0.5-0.6-0.5l-1.5,0.1c-0.1,0-0.3,0-0.4,0c-0.1,0-0.2,0-0.3,0
		c-0.3,0-0.6,0.1-0.8,0.1c-0.3,0.1-0.6,0.1-0.8,0.2c-0.3,0.1-0.6,0.3-0.8,0.4c-0.3,0.2-0.6,0.5-1,0.8c-0.2,0.2-0.4,0.4-0.5,0.6
		c-0.2,0.3-0.3,0.6-0.4,0.9c-0.1,0.4-0.2,0.7-0.2,0.9c-0.1,0.5-0.1,0.8-0.1,1c0,0.1,0,0.2,0,0.3l0,0.3c0,0.1,0,0.2,0,0.3
		c0,0.1,0,0.3,0,0.4l0.1,0.7c0,0.2,0,0.4,0.1,0.5c0,0.1,0,0.3,0.1,0.4l0.1,1c0,0.1,0,0.3,0,0.4c0,0.1,0,0.3,0,0.4v0
		c-0.2,0-0.3,0-0.5,0.1L19.4,22c-0.1,0-0.2,0-0.3,0c-0.1,0-0.2,0-0.3,0c-0.1,0-0.2,0-0.3,0c-0.1,0-0.2,0-0.3,0c-0.1,0-0.3,0-0.4,0
		c-0.1,0-0.2,0-0.3,0c-0.3,0-0.5,0.3-0.5,0.6c0,0.3,0.2,0.5,0.5,0.5h0c0.1,0,0.2,0,0.3,0c0.1,0,0.2,0,0.3,0c0.1,0,0.2,0,0.3,0
		c0.1,0,0.3,0,0.4,0l0.3,0c0.1,0,0.2,0,0.4,0l0.7-0.1c0.2,0,0.3,0,0.4,0c0,0,0,0.1,0,0.1c0,0.1,0,0.2,0,0.4c0,0.1,0,0.3,0,0.4
		c0,0.1,0,0.2,0,0.4c0,0.1,0,0.3,0,0.4c0,0.1,0,0.3,0,0.4l0,0.4c0,0.1,0,0.3,0,0.4l0,0.4c0,0.1,0,0.3,0,0.4c0,0.1,0,0.2,0,0.3
		c0,0.1,0,0.3,0,0.4c0,0.1,0,0.2,0,0.3c0,0.2,0,0.3,0,0.5c0,0.1,0,0.2,0,0.4c0,0.1,0,0.2,0,0.4c0,0.1,0,0.3,0,0.4c0,0.1,0,0.2,0,0.4
		c0,0.1,0,0.2,0,0.3c0,0.1,0,0.3,0,0.5l0,0.8c0,0.1,0,0.3,0,0.4c0,0.1,0,0.2,0,0.3c0,0.1,0,0.2,0,0.3c0,0.2,0,0.3,0,0.5
		c0,0.1,0,0.3,0,0.4c0,0.1,0,0.2,0,0.4c0,0.1,0,0.3,0,0.4c0,0.1,0,0.2,0,0.3c0,0.1,0,0.2,0,0.3c0,0.1,0,0.2,0,0.4c0,0.2,0,0.3,0,0.4
		c0,0.1,0,0.2,0,0.2c0,0.3,0.3,0.5,0.5,0.5h0c0.3,0,0.5-0.3,0.5-0.6c0-0.1,0-0.2,0-0.3c0-0.1,0-0.2,0-0.3c0-0.1,0-0.2,0-0.3
		c0-0.1,0-0.3,0-0.4c0-0.1,0-0.2,0-0.4c0-0.1,0-0.2,0-0.3c0-0.1,0-0.3,0-0.4c0-0.1,0-0.3,0-0.4c0-0.1,0-0.2,0-0.4c0-0.1,0-0.3,0-0.4
		c0-0.2,0-0.3,0-0.5c0-0.1,0-0.2,0-0.3l0-0.8c0-0.1,0-0.3,0-0.4c0-0.1,0-0.3,0-0.4c0-0.1,0-0.3,0-0.4c0-0.1,0-0.2,0-0.3
		c0-0.1,0-0.3,0-0.4c0-0.1,0-0.2,0-0.3c0-0.1,0-0.2,0-0.3c0-0.1,0-0.3,0-0.4c0-0.2,0-0.4,0-0.5c0-0.1,0-0.2,0-0.2c0-0.1,0-0.3,0-0.4
		l0-0.4c0-0.1,0-0.3,0-0.4l0-0.4c0-0.1,0-0.2,0-0.3c0-0.2,0-0.3,0-0.5c0-0.1,0-0.3,0-0.4c0-0.1,0-0.2,0-0.4c0-0.1,0-0.2,0-0.3
		c0-0.1,0-0.1,0-0.2c0,0,0,0,0,0l0.3,0c0.1,0,0.3,0,0.4,0l0.3,0c0.2,0,0.4,0,0.7,0c0.2,0,0.4,0,0.5,0c0.2,0,0.3,0,0.5,0
		c0.1,0,0.2,0,0.3,0c0.2,0,0.5,0.1,0.9,0.1c0.2,0,0.4,0,0.6,0c0.1,0,0.2,0,0.4,0c0.4,0,0.7,0,1-0.1c0.3,0,0.5-0.3,0.5-0.6
		C27.9,21.9,27.6,21.6,27.3,21.7z"/>
</mask>
<path class="st3" d="M27.3,21.7c-0.2,0-0.6,0-0.9,0.1c-0.1,0-0.3,0-0.4,0c-0.2,0-0.3,0-0.5,0c-0.3,0-0.6,0-0.8,0c-0.1,0-0.2,0-0.4,0
	c-0.2,0-0.3,0-0.5,0c-0.1,0-0.3,0-0.5,0c-0.3,0-0.5,0-0.7,0l-0.2,0c-0.2,0-0.3,0-0.5,0l-0.3,0c0-0.1,0-0.2,0-0.4c0-0.1,0-0.2,0-0.4
	l0-0.4c0-0.2,0-0.4,0-0.6c0-0.2,0-0.4-0.1-0.5c0-0.1,0-0.3-0.1-0.4l-0.1-0.7c0-0.1,0-0.2,0-0.3c0-0.1,0-0.3,0-0.4l0-0.3
	c0-0.1,0-0.3,0-0.3c0-0.1,0-0.3,0.1-0.7c0-0.2,0.1-0.5,0.2-0.8c0.1-0.2,0.2-0.4,0.3-0.7c0.1-0.2,0.2-0.3,0.4-0.4l0.1-0.1
	c0.2-0.2,0.5-0.4,0.7-0.6c0.2-0.1,0.4-0.2,0.6-0.3c0.2-0.1,0.4-0.1,0.6-0.2c0.2,0,0.4-0.1,0.7-0.1c0.1,0,0.3,0,0.4,0
	c0.1,0,0.2,0,0.3,0l1.5-0.1c0.3,0,0.5-0.3,0.5-0.6c0-0.3-0.2-0.5-0.6-0.5l-1.5,0.1c-0.1,0-0.3,0-0.4,0c-0.1,0-0.2,0-0.3,0
	c-0.3,0-0.6,0.1-0.8,0.1c-0.3,0.1-0.6,0.1-0.8,0.2c-0.3,0.1-0.6,0.3-0.8,0.4c-0.3,0.2-0.6,0.5-1,0.8c-0.2,0.2-0.4,0.4-0.5,0.6
	c-0.2,0.3-0.3,0.6-0.4,0.9c-0.1,0.4-0.2,0.7-0.2,0.9c-0.1,0.5-0.1,0.8-0.1,1c0,0.1,0,0.2,0,0.3l0,0.3c0,0.1,0,0.2,0,0.3
	c0,0.1,0,0.3,0,0.4l0.1,0.7c0,0.2,0,0.4,0.1,0.5c0,0.1,0,0.3,0.1,0.4l0.1,1c0,0.1,0,0.3,0,0.4c0,0.1,0,0.3,0,0.4v0
	c-0.2,0-0.3,0-0.5,0.1L19.4,22c-0.1,0-0.2,0-0.3,0c-0.1,0-0.2,0-0.3,0c-0.1,0-0.2,0-0.3,0c-0.1,0-0.2,0-0.3,0c-0.1,0-0.3,0-0.4,0
	c-0.1,0-0.2,0-0.3,0c-0.3,0-0.5,0.3-0.5,0.6c0,0.3,0.2,0.5,0.5,0.5h0c0.1,0,0.2,0,0.3,0c0.1,0,0.2,0,0.3,0c0.1,0,0.2,0,0.3,0
	c0.1,0,0.3,0,0.4,0l0.3,0c0.1,0,0.2,0,0.4,0l0.7-0.1c0.2,0,0.3,0,0.4,0c0,0,0,0.1,0,0.1c0,0.1,0,0.2,0,0.4c0,0.1,0,0.3,0,0.4
	c0,0.1,0,0.2,0,0.4c0,0.1,0,0.3,0,0.4c0,0.1,0,0.3,0,0.4l0,0.4c0,0.1,0,0.3,0,0.4l0,0.4c0,0.1,0,0.3,0,0.4c0,0.1,0,0.2,0,0.3
	c0,0.1,0,0.3,0,0.4c0,0.1,0,0.2,0,0.3c0,0.2,0,0.3,0,0.5c0,0.1,0,0.2,0,0.4c0,0.1,0,0.2,0,0.4c0,0.1,0,0.3,0,0.4c0,0.1,0,0.2,0,0.4
	c0,0.1,0,0.2,0,0.3c0,0.1,0,0.3,0,0.5l0,0.8c0,0.1,0,0.3,0,0.4c0,0.1,0,0.2,0,0.3c0,0.1,0,0.2,0,0.3c0,0.2,0,0.3,0,0.5
	c0,0.1,0,0.3,0,0.4c0,0.1,0,0.2,0,0.4c0,0.1,0,0.3,0,0.4c0,0.1,0,0.2,0,0.3c0,0.1,0,0.2,0,0.3c0,0.1,0,0.2,0,0.4c0,0.2,0,0.3,0,0.4
	c0,0.1,0,0.2,0,0.2c0,0.3,0.3,0.5,0.5,0.5h0c0.3,0,0.5-0.3,0.5-0.6c0-0.1,0-0.2,0-0.3c0-0.1,0-0.2,0-0.3c0-0.1,0-0.2,0-0.3
	c0-0.1,0-0.3,0-0.4c0-0.1,0-0.2,0-0.4c0-0.1,0-0.2,0-0.3c0-0.1,0-0.3,0-0.4c0-0.1,0-0.3,0-0.4c0-0.1,0-0.2,0-0.4c0-0.1,0-0.3,0-0.4
	c0-0.2,0-0.3,0-0.5c0-0.1,0-0.2,0-0.3l0-0.8c0-0.1,0-0.3,0-0.4c0-0.1,0-0.3,0-0.4c0-0.1,0-0.3,0-0.4c0-0.1,0-0.2,0-0.3
	c0-0.1,0-0.3,0-0.4c0-0.1,0-0.2,0-0.3c0-0.1,0-0.2,0-0.3c0-0.1,0-0.3,0-0.4c0-0.2,0-0.4,0-0.5c0-0.1,0-0.2,0-0.2c0-0.1,0-0.3,0-0.4
	l0-0.4c0-0.1,0-0.3,0-0.4l0-0.4c0-0.1,0-0.2,0-0.3c0-0.2,0-0.3,0-0.5c0-0.1,0-0.3,0-0.4c0-0.1,0-0.2,0-0.4c0-0.1,0-0.2,0-0.3
	c0-0.1,0-0.1,0-0.2c0,0,0,0,0,0l0.3,0c0.1,0,0.3,0,0.4,0l0.3,0c0.2,0,0.4,0,0.7,0c0.2,0,0.4,0,0.5,0c0.2,0,0.3,0,0.5,0
	c0.1,0,0.2,0,0.3,0c0.2,0,0.5,0.1,0.9,0.1c0.2,0,0.4,0,0.6,0c0.1,0,0.2,0,0.4,0c0.4,0,0.7,0,1-0.1c0.3,0,0.5-0.3,0.5-0.6
	C27.9,21.9,27.6,21.6,27.3,21.7z"/>
</svg>
