<svg width="160" height="56" viewBox="0 0 160 56" fill="none" xmlns="http://www.w3.org/2000/svg">
<g clip-path="url(#clip0_8_217)">
<path fill-rule="evenodd" clip-rule="evenodd" d="M70.0009 -0.00756836C67.7902 -0.00756836 65.7657 0.521731 63.9775 1.57551C62.1908 2.62101 60.7719 4.08372 59.7681 5.92321C58.7648 7.75422 58.2599 9.77377 58.2599 11.919L58.2603 11.9382V11.9383C58.2651 12.1555 58.3077 14.1149 57.9836 16.4415C57.6419 18.8947 56.8985 21.7033 55.3188 23.3218C54.4413 24.2244 53.3666 24.6799 52.1218 24.6799H48.4796V16.8207H51.9785C53.192 16.8207 54.1255 17.1734 54.7754 17.8432C55.1867 18.2706 55.4737 18.8131 55.6254 19.4768L55.9138 20.7307L56.1361 20.1576L56.1412 20.1443L56.1557 20.1066C56.1682 20.074 56.1862 20.0267 56.2083 19.9684C56.2523 19.8518 56.3125 19.6905 56.377 19.5121C56.5049 19.1581 56.6532 18.7269 56.7237 18.4446C56.7949 18.1593 56.8374 17.8245 56.8622 17.5655C56.8747 17.4351 56.8828 17.322 56.8879 17.2414C56.8904 17.201 56.8921 17.1688 56.8933 17.1465L56.8945 17.1207L56.8948 17.1138L56.8949 17.1112L56.8955 17.0964L56.8937 17.0816C56.8413 16.6499 56.612 16.3902 56.4897 16.2613L56.4878 16.2594C55.4108 15.1566 53.8938 14.6083 51.9936 14.6083H46.157V35.0495H48.4871V26.8551H52.5312L56.5278 35.0495H58.8104V34.455L54.7556 26.3044C57.8254 25.0166 59.2505 21.549 59.914 18.3904C60.5876 15.184 60.494 12.2127 60.4846 11.9142L60.4845 11.9087C60.4849 10.0835 60.9008 8.40947 61.728 6.93561C62.5489 5.4599 63.7012 4.28534 65.1568 3.44593C66.6119 2.60676 68.2453 2.18257 70.016 2.18257C72.9773 2.18257 75.2702 2.95587 76.8614 4.44818C78.4512 5.93909 79.2685 8.08251 79.2685 10.8388C79.2685 12.4231 78.7458 14.2028 77.6998 16.1293C76.6453 18.0724 75.0028 20.341 72.821 22.868L64.0406 32.8743H63.9231V25.626H69.2242V23.4508H63.9231V16.8207H72.7533V14.6157H61.608V35.057H62.1226L59.2478 38.3323V40.294H80.9652C83.4196 40.294 85.3754 39.5347 86.7531 38.0275C88.1277 36.5239 88.8151 34.4333 88.8151 31.8314L88.8152 27.5852L88.8151 27.5824C88.7769 25.0475 88.0808 23.01 86.7224 21.5299C85.354 20.0476 83.4753 19.3014 81.1688 19.3014H81.1243L81.1092 19.3089H79.1464L79.0901 19.3902L79.0897 19.3909L79.0509 19.4467L78.996 19.5254L78.9416 19.6032C78.8486 19.7359 78.7186 19.9205 78.5705 20.1281C78.2738 20.5441 77.9065 21.0494 77.6191 21.4145C77.3318 21.7793 76.9253 22.255 76.5891 22.6412C76.4213 22.8339 76.2715 23.0036 76.1638 23.1252C76.1099 23.1859 76.0665 23.2346 76.0366 23.2681L75.9905 23.3198L75.943 23.3727V33.1425H78.3033V21.5511H81.1085C82.8614 21.5511 84.1827 22.0951 85.0738 23.1458C85.9786 24.2114 86.4549 25.7499 86.4549 27.7416V31.979C86.4249 33.97 85.9268 35.492 85.0019 36.5274C84.0803 37.5517 82.7569 38.074 81.0331 38.074L81.0315 38.074L77.3079 38.1038H62.3574L73.7636 24.9651L76.2323 21.9819L76.233 21.981C79.7101 17.7246 81.5006 13.9728 81.5006 10.8388C81.5006 7.45591 80.4847 4.76503 78.4558 2.85213C76.4282 0.948105 73.5788 -0.00756836 70.0009 -0.00756836ZM11.1453 14.6233H0V35.0645H11.2131V32.8819H2.31502V25.6335H10.0518V23.4583H2.31502V16.8283H11.1453V14.6233ZM16.8667 14.6233H14.6895V35.0646H17.0196V19.3589L25.8292 35.0646H27.9838V14.6233H25.6839V30.3582L16.8667 14.6233ZM43.7286 14.6233H30.0799V16.8283H35.7354V35.0645H38.0655V16.8283H43.7286V14.6233ZM98.2058 19.3462H96.1657L89.3945 40.3313H91.8659L93.6078 34.6697H100.734L102.506 40.3313H104.977L98.2058 19.3462ZM100.037 32.4423H94.3039L97.1706 23.2281L100.037 32.4423ZM109.339 19.3462H107.124V40.3313H109.499V24.1639L118.565 40.3313H120.765V19.3462H118.42V35.5433L109.339 19.3462ZM145.099 19.3462H133.66V40.3313H145.167V38.1113H136.02V30.6395H143.968V28.4271H136.02V21.5885H145.099V19.3462ZM153.583 19.0706C151.756 19.0706 150.298 19.5897 149.15 20.6239C147.992 21.6676 147.407 23.0375 147.407 24.68C147.407 26.3219 147.999 27.7159 149.183 28.7382C150.062 29.5068 151.431 30.2018 153.236 30.8012C154.98 31.3805 156.143 31.9803 156.744 32.5736C157.312 33.142 157.617 33.9399 157.617 34.9826C157.617 36.0161 157.258 36.8498 156.571 37.4585C155.867 38.0764 154.913 38.3944 153.703 38.3944C152.314 38.3944 151.218 38.0103 150.432 37.2758C149.648 36.5434 149.239 35.509 149.239 34.1855V33.813H146.879V34.1855C146.879 35.4882 147.18 36.6399 147.773 37.6116C148.365 38.5812 149.199 39.3354 150.249 39.8499C151.287 40.3629 152.447 40.6218 153.703 40.6218C155.565 40.6218 157.099 40.1038 158.256 39.0763C159.416 38.0393 160.007 36.6464 160.007 34.9677C160.007 33.9313 159.807 33 159.407 32.2168L159.393 32.1902L159.378 32.1751C158.976 31.4022 158.348 30.7185 157.529 30.1516C156.708 29.5854 155.496 29.0422 153.943 28.5333C152.446 28.0451 151.367 27.4819 150.717 26.8829C150.095 26.3103 149.782 25.5716 149.782 24.6502C149.782 23.6607 150.119 22.8551 150.778 22.2459C151.443 21.6311 152.372 21.3128 153.583 21.3128C154.784 21.3128 155.77 21.7 156.459 22.451L156.46 22.4518C157.16 23.2071 157.519 24.2313 157.519 25.4994V25.8719H159.894V25.4994C159.894 23.6332 159.307 22.072 158.129 20.8777C156.952 19.6759 155.415 19.0706 153.583 19.0706Z" fill="#F6F4F4"/>
<g filter="url(#filter0_d_8_217)">
<path d="M127.13 42L125.041 39.2437C129.03 36.2937 130.191 34.9155 130.531 34.3568C130.003 34.111 128.962 33.8428 128.231 33.6491C125.916 33.0457 123.035 32.2933 121.263 30.1628C120.223 28.9113 119.868 27.4735 120.245 26.006C121.339 21.6779 128.638 18.4895 130.086 17.8936L131.428 21.0745C128.487 22.2887 124.129 24.8737 123.631 26.8403C123.556 27.1309 123.548 27.4735 123.963 27.9727C125.018 29.2391 127.198 29.8127 129.121 30.3118C131.466 30.9226 133.683 31.5037 134.09 33.5746C134.505 35.6828 132.68 37.8879 127.13 42Z" fill="#FA9C19"/>
</g>
</g>
<defs>
<filter id="filter0_d_8_217" x="112.099" y="11.8936" width="30.0479" height="40.1064" filterUnits="userSpaceOnUse" color-interpolation-filters="sRGB">
<feFlood flood-opacity="0" result="BackgroundImageFix"/>
<feColorMatrix in="SourceAlpha" type="matrix" values="0 0 0 0 0 0 0 0 0 0 0 0 0 0 0 0 0 0 127 0" result="hardAlpha"/>
<feOffset dy="2"/>
<feGaussianBlur stdDeviation="4"/>
<feComposite in2="hardAlpha" operator="out"/>
<feColorMatrix type="matrix" values="0 0 0 0 0.978802 0 0 0 0 0.61105 0 0 0 0 0.096198 0 0 0 0.4 0"/>
<feBlend mode="normal" in2="BackgroundImageFix" result="effect1_dropShadow_8_217"/>
<feBlend mode="normal" in="SourceGraphic" in2="effect1_dropShadow_8_217" result="shape"/>
</filter>
<clipPath id="clip0_8_217">
<rect width="160" height="56" fill="white"/>
</clipPath>
</defs>
</svg>
