<svg width="25" height="25" viewBox="0 0 25 25" fill="none" xmlns="http://www.w3.org/2000/svg">
<g clip-path="url(#clip0_46_919)">
<path d="M13.0509 0.714062C15.8778 0.714062 18.7046 0.714062 21.5312 0.714062C21.7499 0.714062 21.9686 0.706726 22.1872 0.704268C23.3596 0.691879 24.1254 1.37285 24.2479 2.5429C24.2654 2.71005 24.2657 2.87878 24.2675 3.04682C24.2933 4.91242 24.3143 6.77822 24.3435 8.64373C24.3841 11.2336 24.4352 13.8234 24.4733 16.4133C24.5012 18.3188 24.2455 20.2046 24.0398 22.0926C23.9625 22.8024 23.4754 23.2528 22.9227 23.6348C22.7996 23.7233 22.6636 23.7922 22.5194 23.8392C21.702 24.0836 20.9004 24.3604 20.0187 24.3458C15.257 24.2661 10.4951 24.2025 5.73288 24.155C5.14674 24.1547 4.56097 24.1847 3.97793 24.2448C2.74714 24.3585 1.72665 23.98 0.944785 23.0086C0.718661 22.732 0.598151 22.3841 0.604749 22.027C0.626586 20.0771 0.651961 18.1273 0.680879 16.1776C0.727895 13.3186 0.785734 10.4598 0.833931 7.60081C0.856947 6.23863 0.808162 4.87203 0.902785 3.51515C0.990621 2.2566 1.688 1.47002 2.77872 1.17957C3.69288 0.936017 4.61265 0.955454 5.53065 0.926842C8.03659 0.848182 10.5441 0.816922 13.0509 0.766777V0.714062ZM12.9871 7.33181C12.9922 7.36932 12.9993 7.40647 13.0088 7.4431C13.68 9.46632 14.358 11.4874 15.0159 13.5151C15.097 13.7647 15.2597 13.8453 15.4614 13.94C16.8006 14.5688 18.136 15.2057 19.4729 15.8394C19.5768 15.8885 19.6828 15.9338 19.7632 15.9698C19.8138 15.9512 19.8339 15.9502 19.8442 15.9391C20.7983 14.9436 21.7549 13.9506 22.6994 12.9462C22.7963 12.8337 22.8507 12.6909 22.8531 12.5425C22.8433 11.5336 22.8605 10.5211 22.7796 9.51689C22.6741 8.00647 22.6701 6.49067 22.7674 4.97971C22.7957 4.30994 22.7589 3.63901 22.6577 2.97635C22.5751 2.38315 22.4924 2.2618 21.9239 2.21087C21.6577 2.18708 21.3928 2.13329 21.1272 2.1269C20.5385 2.11274 19.9484 2.13671 19.3605 2.11115C19.2362 2.10549 19.112 2.12577 18.9958 2.17073C18.8797 2.2157 18.7742 2.28437 18.6861 2.37233C16.7991 4.02084 14.9069 5.66275 12.9868 7.33181H12.9871ZM7.52137 2.13045C6.76075 2.13045 6.02295 2.12757 5.28505 2.1316C4.89859 2.13376 4.50947 2.1218 4.12616 2.16113C2.76337 2.30006 2.11655 3.03082 2.20429 4.50028C2.32832 6.57866 2.36698 8.66477 2.36305 10.7474C2.35931 12.7469 2.25406 14.746 2.19583 16.7452C2.19229 16.8664 2.21029 16.988 2.21875 17.1175L10.6187 11.6449C9.71973 8.43709 8.64977 5.31254 7.52137 2.12997V2.13045ZM11.007 13.1435C10.9353 13.1775 10.9193 13.1833 10.9051 13.1922C8.03134 14.9941 5.15708 16.7952 2.28239 18.5955C2.21698 18.6321 2.16343 18.6865 2.12812 18.7527C2.09281 18.8188 2.07723 18.8935 2.08321 18.9682C2.08596 19.7581 2.05547 20.5493 2.09364 21.3374C2.13023 22.0929 2.55967 22.6648 3.19852 22.7877C3.88754 22.9373 4.58883 23.0236 5.2936 23.0454C8.08459 23.0628 10.8757 23.0333 13.6667 23.0193C13.8081 23.0186 13.9493 23.0004 14.1223 22.9882C12.8321 19.7662 12.0702 16.427 11.007 13.143V13.1435ZM15.7487 15.4582L15.6234 15.5441C16.4719 18.0302 17.3203 20.5164 18.1858 23.0527C19.0566 23.0527 19.9151 23.0846 20.7694 23.0394C21.2039 23.0028 21.6307 22.9032 22.0363 22.7436C22.4833 22.5813 22.8205 22.2594 22.8495 21.747C22.893 20.9775 22.9154 20.2073 22.9165 19.4364C22.9165 19.333 22.7591 19.1963 22.6427 19.1316C22.0117 18.7801 21.3713 18.4457 20.7333 18.1065C19.072 17.223 17.4105 16.34 15.7487 15.4577V15.4582ZM8.77016 2.17587C8.81423 2.31804 8.84098 2.42726 8.88131 2.53129C9.25173 3.48622 9.64183 4.4339 9.99278 5.39571C10.8276 7.68185 11.5333 10.008 12.1892 12.3524C12.8491 14.7109 13.5868 17.0481 14.3159 19.3866C14.6945 20.6009 15.1285 21.7979 15.5319 22.9864H16.627C13.9566 16.145 12.066 9.0868 9.67704 2.17587H8.77016ZM12.5382 6.04514L17.2563 2.14567H11.0596C11.566 3.48102 12.0513 4.76064 12.5382 6.04466V6.04514ZM22.9431 17.667V14.4961L22.8474 14.4654L20.991 16.6358L22.9431 17.667Z" fill="#FA9C19"/>
<path d="M18.5092 9.49125C18.6202 9.53499 18.7279 9.58646 18.8316 9.64531C19.7873 10.2362 20.7414 10.8299 21.6939 11.4264C22.0873 11.6714 22.1799 12.0057 21.9554 12.4096C21.8881 12.5258 21.8096 12.6352 21.721 12.7362C21.2763 13.2607 20.8317 13.7855 20.3777 14.3019C20.2685 14.426 20.1161 14.5109 19.996 14.6263C19.6773 14.9337 19.337 14.9108 18.9835 14.7041C18.4911 14.4157 18.0003 14.1251 17.5111 13.8323C17.1946 13.6423 16.8746 13.4568 16.5703 13.2485C16.0761 12.91 15.9657 12.4344 16.301 11.9491C16.8063 11.2176 17.3416 10.5068 17.8688 9.79063C17.9377 9.68665 18.0339 9.6037 18.1469 9.55088C18.2599 9.49805 18.3853 9.4774 18.5092 9.49125ZM18.4904 10.6396L17.1331 12.3234L19.3427 13.5507L20.7354 11.9734L18.4904 10.6396Z" fill="#FA9C19"/>
<path d="M8.04798 8.43298C8.25365 8.55943 8.50742 8.64664 8.65733 8.82235C8.94001 9.15315 9.1877 9.5123 9.39641 9.89408C9.53631 10.1636 9.57721 10.4737 9.51203 10.7703C9.44684 11.0668 9.27969 11.3312 9.03965 11.5173C8.53019 11.8991 7.9994 12.2518 7.44985 12.5735C6.9007 12.8933 6.44136 12.7208 6.18326 12.132C5.98831 11.6875 5.82415 11.2356 5.46523 10.8796C5.28906 10.7048 5.31956 10.4723 5.53172 10.2503C5.7444 10.0368 5.9731 9.83987 6.21582 9.66122C6.64113 9.33532 7.0728 9.01782 7.51083 8.70875C7.68358 8.60503 7.86301 8.51292 8.04798 8.43298ZM7.0931 11.321L8.29565 10.5495L7.82352 9.90056L6.59175 10.681L7.0931 11.321Z" fill="#FA9C19"/>
<path d="M6.4578 16.6397C6.83649 16.6142 7.07059 16.7307 7.20535 16.955C7.49738 17.4427 7.80318 17.9314 8.01427 18.4556C8.2224 18.9726 7.91865 19.437 7.55865 19.7505C7.03043 20.1924 6.46495 20.5879 5.86852 20.9323C5.40298 21.2129 5.03245 21.0972 4.75055 20.6395C4.46029 20.1676 4.19108 19.6819 3.93367 19.1912C3.71255 18.7697 3.78927 18.3705 4.14504 18.0531C4.33612 17.8888 4.54049 17.7406 4.75607 17.61C5.19678 17.3324 5.6424 17.0625 6.09289 16.8004C6.2104 16.7379 6.33237 16.6842 6.4578 16.6397ZM6.38403 17.9769L4.9219 18.7476L5.65282 19.6271L6.79793 18.882L6.38403 17.9769Z" fill="#FA9C19"/>
</g>
<defs>
<clipPath id="clip0_46_919">
<rect width="24" height="23.6962" fill="white" transform="translate(0.553711 0.651855)"/>
</clipPath>
</defs>
</svg>
