<svg width="41" height="45" viewBox="0 0 41 45" fill="none" xmlns="http://www.w3.org/2000/svg">
<g clip-path="url(#clip0_46_1227)">
<path d="M3.59059 43.3074C4.67761 44.1358 5.99874 44.5893 7.35962 44.6012C8.38508 44.5889 9.39538 44.3497 10.3196 43.9C12.4426 42.9051 13.5242 41.1118 13.5349 38.5699C13.5358 38.3859 13.5371 38.2018 13.539 38.0177C13.5414 37.7548 13.5437 37.4918 13.5437 37.2291V33.2098C13.5437 29.7647 13.5449 26.3199 13.5471 22.875C13.5476 22.8026 13.5518 22.7303 13.5596 22.6585C13.8306 22.5496 14.0958 22.4494 14.3522 22.3525C14.9399 22.1454 15.5138 21.9 16.0702 21.618C19.0011 20.0476 21.9744 18.44 24.8501 16.8854C27.6593 15.3668 30.5644 13.7964 33.426 12.2619C34.2844 11.8019 35.1544 11.3997 36.0757 10.9742C36.411 10.8192 36.7484 10.6635 37.0873 10.5036V26.2249C36.9991 26.1524 36.912 26.0808 36.8265 26.0099C36.4564 25.6886 36.0652 25.393 35.6558 25.1252C34.0153 24.1045 32.3025 24.0741 30.7034 25.0366C28.5994 26.3035 27.3517 28.2937 27.0951 30.7923C26.779 33.8756 28.4674 36.3443 31.2979 36.9357C34.0315 37.5064 36.6435 36.7009 38.4606 34.7239C40.1533 32.8832 40.8289 30.3956 40.2234 28.2314C40.1659 27.9683 40.1441 27.6986 40.1583 27.4295C40.1583 27.3652 40.1583 27.3012 40.1583 27.2374C40.1388 24.7119 40.1198 22.1863 40.1012 19.6606C40.0612 14.2721 40.0182 8.88352 39.9721 3.49493C39.9828 2.80864 39.9052 2.1239 39.7412 1.45791C39.6204 1.02562 39.2354 0.484395 38.8238 0.363548C37.9919 0.119245 37.0011 -0.0537644 35.9646 0.512796C33.4879 1.8656 30.8284 3.24018 28.0599 4.5984C21.8599 7.63989 16.9815 10.3436 12.7102 13.1065C12.3749 13.3234 11.9987 13.8298 11.9753 14.2701C11.743 18.6948 11.5329 23.3573 11.3509 28.1285C11.3106 29.1844 11.3205 30.2444 11.331 31.3669C11.3353 31.8145 11.3397 32.2749 11.341 32.7503L11.0485 32.6339C10.7552 32.5177 10.5432 32.4336 10.3355 32.3391C10.1154 32.2391 9.89304 32.1246 9.67848 32.0138C9.25118 31.7764 8.80292 31.5799 8.33951 31.4266C5.87537 30.6992 3.90248 31.1388 2.47501 32.732C1.83273 33.4875 1.35016 34.3677 1.0571 35.319C0.764051 36.2703 0.666714 37.2721 0.771066 38.263C0.875418 39.2536 1.17928 40.2124 1.66388 41.0797C2.14848 41.9471 2.80357 42.7048 3.58875 43.3062L3.59059 43.3074ZM11.3423 37.5929C11.3443 37.7234 11.3461 37.8471 11.3391 37.97C11.1944 40.4488 10.1012 41.7185 7.79463 42.0892C5.94394 42.3844 4.00034 41.1332 3.27407 39.1747C2.64126 37.4694 2.86985 35.783 3.95317 34.1624C4.48681 33.3642 5.27129 32.9772 6.38373 32.9772C7.34556 32.9828 8.29295 33.2146 9.15114 33.654C10.9346 34.5305 11.6311 35.7125 11.343 37.3747C11.3412 37.3857 11.3403 37.3967 11.3403 37.4079C11.3403 37.4694 11.3412 37.5314 11.3423 37.5929ZM13.628 20.6438V14.4415L37.2354 2.54481V7.43238L13.628 20.6438ZM37.2698 32.0636C36.8735 33.069 35.9548 33.6072 35.2538 33.8817C34.6798 34.1055 34.0702 34.2793 33.4805 34.4468C33.2245 34.5195 32.9681 34.5923 32.7135 34.6693C30.5967 34.5005 29.2617 33.0313 29.3882 31.0038C29.4293 30.2 29.6444 29.4154 30.0186 28.7053C30.3928 27.9951 30.9167 27.3769 31.5533 26.8944C32.0372 26.4886 32.6433 26.2621 33.2717 26.252C33.6864 26.2552 34.0947 26.3546 34.4654 26.5427C36.3976 27.4951 37.2763 28.6594 37.3137 30.3179C37.3178 30.4807 37.3299 30.648 37.3423 30.8162C37.3745 31.2567 37.4079 31.7125 37.2697 32.0636H37.2698Z" fill="#F6F4F4"/>
</g>
<defs>
<clipPath id="clip0_46_1227">
<rect width="40" height="44.5714" fill="white" transform="translate(0.553711 0.0864258)"/>
</clipPath>
</defs>
</svg>
