<svg width="25" height="23" viewBox="0 0 25 23" fill="none" xmlns="http://www.w3.org/2000/svg">
<g clip-path="url(#clip0_46_924)">
<path d="M5.6168 19.4955C5.86787 19.6212 5.95209 19.7966 5.89815 20.0821C5.85297 20.3749 5.8503 20.6728 5.89026 20.9664C5.95022 21.519 6.24636 22.1569 6.7547 22.2517C7.09709 22.3183 7.4449 22.3531 7.79369 22.3558C8.26246 22.3601 8.72792 22.2767 9.16595 22.1097C9.7078 21.9009 9.96303 21.4272 9.8479 20.8425C9.82133 20.706 9.79264 20.5697 9.76253 20.4253L9.74481 20.3399C9.93557 20.3576 10.123 20.3779 10.3052 20.3975C10.787 20.4579 11.2716 20.4933 11.7571 20.5038C12.245 20.5028 12.716 20.4595 13.2174 20.4102C13.3952 20.3925 13.5782 20.3748 13.7613 20.3593C13.7578 20.386 13.7543 20.412 13.7509 20.4375C13.7319 20.5551 13.7216 20.674 13.72 20.7932C13.7272 21.3579 13.876 21.7939 14.1502 22.053C14.3685 22.2595 14.6633 22.3566 15.0247 22.3409C15.8084 22.3074 16.4544 22.253 17.0575 22.1697C17.493 22.1097 17.7482 21.8141 17.7571 21.359C17.7655 20.9428 17.7494 20.5195 17.7339 20.1103C17.729 19.9825 17.7241 19.8547 17.7201 19.727C17.7156 19.5918 17.7043 19.458 17.6935 19.3285C17.6905 19.2936 17.6875 19.259 17.6847 19.2248C17.8967 19.1328 18.1061 19.0426 18.313 18.9542C18.8184 18.7375 19.296 18.5329 19.7754 18.3116C20.9455 17.7719 21.7857 16.9596 22.2736 15.8972C22.2966 15.8471 22.3253 15.7981 22.3556 15.7466C22.3602 15.7389 22.3645 15.7311 22.3693 15.7233C22.4093 15.7286 22.4486 15.734 22.4873 15.7397C22.6175 15.7579 22.7405 15.7751 22.8667 15.7822C23.0721 15.7939 23.275 15.7897 23.4637 15.783C24.1158 15.7612 24.3711 15.5194 24.4393 14.8594C24.5658 13.6364 24.3861 12.4199 24.2119 11.2435L24.2037 11.1882C24.112 10.5673 23.8573 10.3517 23.1951 10.3335C22.9131 10.326 22.6276 10.328 22.3513 10.3298C22.2481 10.3305 22.145 10.3312 22.0422 10.3314C21.3634 8.36622 20.2501 7.21627 18.548 6.72405C18.6834 6.43724 18.8001 6.14199 18.8973 5.84012C19.0605 5.36756 19.2147 4.92103 19.5242 4.53968C19.716 4.30322 19.7406 4.05863 19.5901 3.88523C19.5219 3.82028 19.4408 3.77046 19.3521 3.739C19.2633 3.70756 19.1688 3.69517 19.0751 3.7027C17.4195 3.85671 16.2323 4.47849 15.4465 5.60356C15.4083 5.65628 15.3675 5.70703 15.3243 5.75562L15.3172 5.76377C15.2282 5.75722 15.1425 5.74942 15.0591 5.7419C14.8587 5.71959 14.6573 5.70871 14.4557 5.70931C13.8857 5.72189 13.2633 5.74828 12.5528 5.79017C10.0568 5.93754 7.92415 6.5741 6.03302 7.73638C4.31264 8.79362 3.29127 10.2088 2.91028 12.0629C2.86688 12.274 2.7846 12.3994 2.64866 12.4561C2.6406 12.368 2.63441 12.2795 2.62821 12.193C2.61783 11.9111 2.57869 11.631 2.51139 11.3572C2.45317 11.1437 2.31997 10.9582 2.13618 10.835C1.95238 10.7117 1.73033 10.6587 1.51067 10.6858C1.30124 10.7181 1.10886 10.8202 0.964795 10.9756C0.820729 11.1309 0.733424 11.3305 0.717058 11.5418C0.705189 11.8033 0.720241 12.0653 0.761966 12.3238C0.77587 12.434 0.790301 12.5482 0.799954 12.6591C0.801684 12.6796 0.810377 12.6988 0.824581 12.7138C0.671814 12.894 0.49895 13.1326 0.714507 13.4194C0.919614 13.6922 1.22471 13.6382 1.47002 13.5952L1.54085 13.582C1.63915 13.5586 1.74005 13.5478 1.84108 13.55C2.03592 13.5635 2.23377 13.5892 2.4433 13.6163C2.50884 13.6252 2.57614 13.6334 2.64566 13.6422C2.64566 13.6457 2.64521 13.6493 2.64503 13.6528C2.6414 13.721 2.63778 13.7903 2.63096 13.8595C2.54635 14.5973 2.64645 15.3446 2.92223 16.0341C2.972 16.1566 3.01734 16.2848 3.06109 16.4088C3.12901 16.6135 3.20887 16.8141 3.30022 17.0094C3.45552 17.3427 3.64758 17.6575 3.87284 17.9482C4.32468 18.5004 4.86828 19.1206 5.6168 19.4955ZM18.1544 4.88995C18.0501 5.09852 17.9593 5.31361 17.8828 5.53388C17.7369 5.98757 17.6066 6.47377 17.4958 6.97928C17.4199 7.32467 17.5587 7.53154 17.9199 7.61151C19.0474 7.86099 19.9136 8.53255 20.5678 9.66393C20.7728 10.0405 20.9363 10.4382 21.0557 10.85C21.2041 11.3215 21.3657 11.5349 21.9302 11.5529C22.187 11.5613 22.4463 11.5593 22.7208 11.5573C22.824 11.5566 22.9301 11.5558 23.0404 11.5555L23.2575 14.5088C23.1548 14.532 23.0557 14.5531 22.9594 14.5742C22.6838 14.6336 22.4235 14.6893 22.1733 14.7703C21.9931 14.8282 21.7659 14.9526 21.6701 15.1281C20.8264 16.6656 19.374 17.3827 18.0645 17.8815L17.8943 17.9462C17.5635 18.072 17.2212 18.202 16.8883 18.339C16.5622 18.473 16.5415 18.8203 16.5315 18.9873C16.5063 19.4073 16.4961 19.8344 16.486 20.2476C16.4823 20.4015 16.4785 20.5554 16.474 20.7092C16.4723 20.7681 16.4726 20.8269 16.4731 20.9029V20.9592L15.1518 21.0971C15.1349 20.9874 15.1164 20.8802 15.0987 20.7746C15.047 20.5039 15.0114 20.2303 14.9918 19.9554C14.9733 19.5864 14.8547 19.321 14.6393 19.1663C14.409 19.0013 14.0751 18.9743 13.6724 19.0883C12.8652 19.3165 12.072 19.3218 11.3287 19.3079C11.106 19.3037 10.8779 19.2771 10.6571 19.2514C10.497 19.2326 10.3313 19.2134 10.1668 19.2023C9.96374 19.1868 9.7596 19.1953 9.55866 19.2278C9.05384 19.3145 8.79507 19.5761 8.69234 20.1021C8.65939 20.2703 8.64079 20.4422 8.6244 20.6035C8.61413 20.7059 8.60881 20.8081 8.60261 20.9264C8.60093 20.9593 8.59915 20.9934 8.59712 21.0293L7.18475 21.1267C7.17182 20.9947 7.1573 20.8652 7.14305 20.7376C7.09842 20.3984 7.07298 20.057 7.0668 19.7151C7.06742 19.3921 7.01976 19.0545 6.66906 18.7753L6.47955 18.6247C6.04459 18.2932 5.62901 17.9371 5.23483 17.5581C4.75422 17.0934 4.37966 16.5304 4.13679 15.9077C3.89392 15.2848 3.78847 14.6169 3.82767 13.9496C3.87744 12.7958 4.107 11.8048 4.52953 10.9199C4.86738 10.2122 5.40901 9.59654 6.1856 9.03778C8.036 7.70556 10.2315 7.01221 12.8972 6.91799C13.2193 6.90665 13.5474 6.90116 13.8648 6.89593C14.3466 6.88796 14.8447 6.87973 15.3344 6.85059C15.5659 6.83677 15.7866 6.57606 15.8487 6.49591C16.4535 5.72003 17.0115 5.24623 17.6581 4.96C17.8074 4.89393 17.9618 4.8347 18.1406 4.76606L18.2277 4.73257C18.2029 4.78694 18.1782 4.8392 18.1544 4.88995Z" fill="#FA9C19"/>
<path d="M10.335 0.637415C9.50189 0.710035 8.80026 1.20209 8.35905 2.02278C8.06122 2.577 7.97328 3.11286 8.09771 3.61553C8.34683 4.62185 9.14865 5.13428 10.4811 5.1388C10.515 5.14057 10.5487 5.14135 10.5822 5.14135C11.3873 5.14135 12.1108 4.64027 12.5324 3.78344C12.9126 3.01066 12.9288 2.374 12.5819 1.83696C12.0312 0.98501 11.234 0.559304 10.335 0.637415ZM11.3588 3.21532C11.0948 3.70374 10.7269 3.98361 10.3754 3.95633H10.3694C9.87136 3.95394 9.50534 3.81904 9.31073 3.56665C9.14432 3.35065 9.10544 3.04707 9.19825 2.68893C9.24482 2.49346 9.32166 2.30646 9.42599 2.13471C9.50295 2.01044 9.61028 1.90781 9.73799 1.83653C9.86561 1.76526 10.0093 1.72767 10.1555 1.72732C10.2864 1.72786 10.4156 1.75647 10.5343 1.81119C10.7613 1.90918 10.9748 2.03574 11.1698 2.18777C11.5618 2.50562 11.6074 2.75534 11.3588 3.21532Z" fill="#FA9C19"/>
<path d="M12.1936 7.65731C10.5729 7.7836 9.17163 8.1613 7.90849 8.81213C7.67789 8.9379 7.46154 9.08818 7.26315 9.26034C7.02324 9.46057 6.9685 9.73655 7.12685 9.94697C7.16123 9.9955 7.20699 10.0347 7.26011 10.0615C7.31322 10.0881 7.37207 10.1013 7.4315 10.1C7.55213 10.0945 7.66993 10.0616 7.77592 10.0037C8.78029 9.50691 9.93066 9.16852 11.2927 8.96926C11.6933 8.91063 12.0993 8.83755 12.4994 8.75217C12.8093 8.68629 12.984 8.49189 12.9923 8.20513V8.2023C12.9942 8.13133 12.9811 8.06077 12.9537 7.99524C12.9264 7.9297 12.8855 7.87067 12.8338 7.82203C12.6936 7.69255 12.4722 7.63491 12.1936 7.65731Z" fill="#FA9C19"/>
<path d="M16.7461 9.92034C16.7383 10.0379 16.7543 10.1557 16.7931 10.2669C16.8319 10.3781 16.8927 10.4804 16.9719 10.5676C17.0511 10.6548 17.1471 10.7251 17.254 10.7744C17.361 10.8237 17.4769 10.8509 17.5946 10.8545C17.6079 10.8551 17.6211 10.8554 17.6345 10.8554C17.8636 10.8547 18.0835 10.7649 18.2473 10.6047C18.3367 10.5189 18.4077 10.4159 18.4563 10.3019C18.5047 10.188 18.5296 10.0653 18.5294 9.9415C18.5269 9.45962 18.1738 9.07633 17.7256 9.0688C17.1615 9.06304 16.7663 9.40152 16.7461 9.92034Z" fill="#FA9C19"/>
</g>
<defs>
<clipPath id="clip0_46_924">
<rect width="24" height="21.786" fill="white" transform="translate(0.553711 0.607056)"/>
</clipPath>
</defs>
</svg>
