<svg width="53" height="41" viewBox="0 0 53 41" fill="none" xmlns="http://www.w3.org/2000/svg">
<g clip-path="url(#clip0_46_1272)">
<path d="M20.7616 17.0847C15.1455 17.2615 9.5297 17.4458 3.9125 17.6043C3.26807 17.6069 2.6249 17.5459 1.99243 17.4223C1.8862 17.4106 1.7836 17.3769 1.69117 17.3232C1.59874 17.2696 1.51848 17.1971 1.45559 17.1107C1.39271 17.0242 1.34858 16.9258 1.32597 16.8213C1.30335 16.7168 1.30283 16.6089 1.32433 16.5042C1.38042 16.0068 1.72247 15.7785 2.18414 15.7365C3.02101 15.6603 3.86012 15.5888 4.69833 15.551C8.70704 15.3709 12.7154 15.1676 16.7259 15.0371C22.6108 14.8474 28.5001 14.7781 34.3824 14.5321C37.9267 14.3837 41.4932 14.2303 44.9332 13.2064C45.7397 12.9761 46.5198 12.6625 47.261 12.2702C48.3976 11.6498 49.0237 10.6452 49.2356 9.34267C49.9486 4.95697 45.0791 1.98461 41.9998 3.37791C40.6923 3.96942 39.4154 4.52171 38.7106 5.8873C38.0217 7.22182 38.2621 8.297 39.4928 9.17901C40.3102 9.76493 40.5149 10.1925 40.2438 10.7481C39.9462 11.3574 39.2078 11.5634 38.3345 11.2803C36.1728 10.5795 35.1044 8.24681 35.8659 5.85195C36.2693 4.56278 37.068 3.43302 38.1484 2.6224C39.7299 1.42643 41.5142 0.661531 43.5249 0.563877C46.9873 0.395832 49.5185 2.05852 51.1701 4.91662C53.4655 8.88868 51.6342 13.5527 47.3133 15.1261C45.076 15.9225 42.7314 16.3771 40.3587 16.475C35.5875 16.7076 30.8101 16.8123 26.0347 16.9717C24.2767 17.0304 22.5193 17.0919 20.7623 17.1561L20.7616 17.0847Z" fill="#B29186"/>
<path d="M15.0553 27.7019C10.4727 27.7019 6.38619 27.705 2.2995 27.6994C1.37324 27.6981 0.962956 27.4836 0.907761 27.023C0.846979 26.5151 1.29793 26.158 2.24854 26.0934C4.95245 25.9097 7.65927 25.6768 10.3681 25.6179C15.5632 25.5048 20.7605 25.4648 25.957 25.4614C28.7262 25.4596 31.4417 25.8983 33.9981 27.0257C36.0719 27.9408 37.4488 29.4838 37.5874 31.8013C37.7586 34.663 36.6783 37.0331 34.3262 38.7421C32.1476 40.3249 29.7704 40.812 27.1813 39.8961C23.4348 38.5705 23.5565 34.5553 25.3489 32.6293C25.8716 32.0764 26.4743 31.6049 27.1367 31.2306C27.7957 30.855 28.5802 31.0449 28.9244 31.4876C29.2535 31.9122 29.2314 32.577 28.7885 33.1935C28.4786 33.5803 28.1454 33.9481 27.7907 34.2945C26.7007 35.4746 27.0155 36.7034 28.5246 37.1772C31.5069 38.1137 35.3626 35.4599 34.818 31.5568C34.6752 30.5323 33.9375 29.892 33.0245 29.4739C31.0772 28.5712 28.9695 28.0655 26.8245 27.9868C22.7379 27.8456 18.649 27.7841 15.0553 27.7019Z" fill="#B29186"/>
<path d="M15.8748 35.2218C17.0994 35.2727 17.8887 35.9554 17.8706 36.9487C17.8512 38.0323 16.978 38.826 15.8384 38.7959C14.7155 38.7666 13.9966 38.0026 14.0442 36.889C14.0932 35.7465 14.7226 35.1737 15.8748 35.2218Z" fill="#B29186"/>
<path d="M29.3289 4.81084C29.7528 4.80273 30.1626 4.96157 30.4703 5.25319C30.7781 5.54481 30.9588 5.94575 30.9734 6.36941C31.0404 7.46975 30.1962 8.45134 29.1687 8.46832C28.7056 8.4727 28.2594 8.29547 27.9255 7.97469C27.5915 7.65393 27.3966 7.215 27.3823 6.75218C27.3099 5.69051 28.1454 4.85777 29.3289 4.81084Z" fill="#B29186"/>
<path d="M47.5416 23.0422C47.6173 22.0957 48.7451 21.1772 49.696 21.2873C50.111 21.352 50.487 21.5689 50.7512 21.8955C51.0153 22.2221 51.1485 22.6351 51.125 23.0545C51.0227 23.9745 50.001 24.7168 48.9438 24.6395C48.744 24.635 48.5474 24.5892 48.3661 24.5048C48.1851 24.4203 48.0234 24.2992 47.8915 24.149C47.7597 23.9988 47.6607 23.8227 47.6003 23.6321C47.54 23.4415 47.5201 23.2408 47.5416 23.0422Z" fill="#B29186"/>
</g>
<defs>
<clipPath id="clip0_46_1272">
<rect width="51.3966" height="40" fill="white" transform="translate(0.855469 0.37207)"/>
</clipPath>
</defs>
</svg>
