<svg width="25" height="24" viewBox="0 0 25 24" fill="none" xmlns="http://www.w3.org/2000/svg">
<g clip-path="url(#clip0_46_912)">
<path d="M6.37514 2.41101C6.37514 2.03491 6.36727 1.69017 6.37713 1.34584C6.38928 0.921213 6.50051 0.735546 6.72817 0.720366C6.95582 0.705187 7.08179 0.867701 7.14642 1.29732C7.19621 1.62398 7.2215 1.95411 7.26591 2.35937L17.5779 2.27052C17.599 2.05401 17.6139 1.85935 17.6376 1.66581C17.6621 1.46868 17.6866 1.27086 17.7273 1.07662C17.7765 0.841041 17.9172 0.68765 18.1714 0.685453C18.4476 0.682956 18.606 0.848025 18.6501 1.10188C18.7013 1.39588 18.7184 1.69586 18.7497 1.99326C18.7583 2.07375 18.7655 2.15443 18.7781 2.28286C19.2647 2.30813 19.7384 2.34638 20.2121 2.35487C22.304 2.39222 23.483 3.68217 23.9018 5.49692C24.1127 6.41058 24.1586 7.36989 24.2075 8.31221C24.3211 10.5032 24.4038 12.6963 24.4741 14.8886C24.514 16.117 24.5046 17.3475 24.515 18.5771C24.5361 21.063 22.655 22.3931 21.0016 22.8438C20.427 23.0055 19.8353 23.0976 19.239 23.1184C15.7582 23.2038 12.2766 23.2991 8.79515 23.3015C6.93839 23.3029 5.09387 23.007 3.27754 22.613C1.88335 22.3106 0.808924 21.0135 0.642417 19.5132C0.591262 19.0172 0.570143 18.5187 0.57918 18.0202C0.597504 16.3082 0.649393 14.5965 0.656762 12.8845C0.665426 10.8902 0.645902 8.89572 0.626882 6.90142C0.621703 6.35446 0.586453 5.82288 0.784428 5.28281C1.33673 3.77644 2.41922 2.94418 3.9602 2.68153C4.57952 2.57587 5.21129 2.54365 5.83728 2.47674C5.9998 2.45936 6.16023 2.43737 6.37514 2.41101ZM22.9301 8.15447C19.39 8.27061 15.9292 8.3941 12.4678 8.49507C8.99222 8.59683 5.51541 8.67693 2.0133 8.76721C2.00972 8.80945 1.99737 8.88905 1.99727 8.96865C1.99395 11.6286 1.99183 14.2886 1.9909 16.9486C1.9909 17.663 1.98722 18.3781 2.01978 19.0912C2.04074 19.5937 2.23163 20.0739 2.56106 20.4531C2.89049 20.8322 3.3388 21.0875 3.83222 21.1771C5.84384 21.519 7.85406 21.8362 9.90761 21.7807C11.7805 21.7299 13.6552 21.7477 15.5286 21.7096C17.0197 21.6796 18.5105 21.6213 20 21.5535C20.6497 21.5197 21.2773 21.3053 21.8124 20.9343C22.5349 20.4463 23.0204 19.8073 23.0362 18.8871C23.0485 18.1731 23.0945 17.459 23.0834 16.7453C23.0413 14.0362 22.9819 11.3273 22.9297 8.61844C22.9273 8.45486 22.9304 8.29128 22.9304 8.15447H22.9301ZM1.88017 7.52767C8.89045 7.15218 15.7896 6.90764 22.7317 6.74186C22.6919 6.38784 22.6865 6.05278 22.6122 5.73391C22.3823 4.75153 21.9521 3.9106 20.8841 3.61879C20.2064 3.43364 19.5115 3.48714 18.7928 3.50362C18.7768 3.66201 18.7665 3.79142 18.7497 3.91995C18.7358 4.05191 18.7146 4.18301 18.6864 4.31264C18.5851 4.72468 18.3776 4.91181 18.0581 4.88954C17.7361 4.86737 17.5522 4.65099 17.5231 4.22686C17.5065 3.98479 17.5201 3.74061 17.5201 3.50942H7.34419C7.34419 3.7456 7.34867 3.92478 7.34309 4.10354C7.34292 4.35223 7.32962 4.60071 7.30326 4.84799C7.29408 4.96629 7.24054 5.07672 7.15344 5.15705C7.06635 5.23737 6.95214 5.28162 6.83382 5.28091C6.55498 5.29769 6.39664 5.12113 6.33489 4.88086C6.29871 4.68547 6.28306 4.48681 6.28819 4.28815C6.27923 4.06435 6.27924 3.84016 6.27436 3.55384C5.5206 3.61766 4.83106 3.60727 4.1731 3.74728C3.07876 3.98027 2.17892 4.52475 1.97666 5.748C1.88355 6.31333 1.91044 6.89872 1.88017 7.52767Z" fill="#FA9C19"/>
<path d="M6.67705 19.5418C6.53086 19.5482 6.25003 19.5717 5.9692 19.5707C5.36044 19.5693 4.98918 19.2931 4.87595 18.7019C4.73803 18.0164 4.76843 17.3077 4.96458 16.6366C5.00113 16.4914 5.07605 16.3587 5.18142 16.2526C5.2868 16.1465 5.41874 16.0708 5.56339 16.0334C6.35871 15.8013 7.18903 15.714 8.01508 15.7752C8.45763 15.8059 8.79999 16.0531 8.90137 16.5183C9.05493 17.2213 9.09617 17.9318 8.90527 18.6354C8.74503 19.2256 8.36602 19.5173 7.75407 19.54C7.44058 19.5514 7.12618 19.5418 6.67705 19.5418ZM7.408 17.1632H6.11479L6.16956 18.0264H7.408V17.1632Z" fill="#FA9C19"/>
<path d="M14.6752 17.3036C14.6752 17.4729 14.6775 17.5727 14.6752 17.6723C14.6477 18.7059 14.3161 19.108 13.296 19.2862C12.7748 19.3771 12.2466 19.4374 11.7191 19.4819C11.1471 19.5303 10.7631 19.275 10.651 18.737C10.509 18.0536 10.4259 17.3603 10.5751 16.6608C10.68 16.1693 10.9698 15.842 11.459 15.7689C12.1132 15.6666 12.7727 15.6023 13.4344 15.5765C14.1731 15.553 14.4942 15.853 14.6095 16.5792C14.65 16.8409 14.6577 17.1079 14.6752 17.3036ZM13.1926 16.9903H11.7662C11.814 17.363 11.8568 17.6958 11.901 18.0405C12.2219 18.0092 12.4842 17.9858 12.746 17.9575C13.22 17.9062 13.2712 17.8476 13.2487 17.3638C13.2432 17.2512 13.2154 17.1398 13.1922 16.9903H13.1926Z" fill="#FA9C19"/>
<path d="M18.1514 19.3718C17.8374 19.3861 17.5229 19.3842 17.2091 19.3661C16.6403 19.3061 16.3089 19.0049 16.2747 18.4473C16.2342 17.8345 16.2416 17.2197 16.297 16.6081C16.3568 15.9827 16.6396 15.7276 17.2658 15.6782C17.8754 15.6301 18.4901 15.6164 19.1017 15.6291C19.7473 15.6426 20.3555 16.0585 20.3077 16.9099C20.2844 17.3242 20.277 17.741 20.2238 18.1518C20.1221 18.9368 19.7382 19.2814 18.9449 19.3412C18.6807 19.3612 18.416 19.3749 18.1515 19.3916L18.1514 19.3718ZM17.5384 16.8367C17.5584 17.2617 17.5734 17.5839 17.5882 17.8945H18.7474C18.7773 17.5734 18.8018 17.2986 18.8309 16.979L17.5384 16.8367Z" fill="#FA9C19"/>
<path d="M18.1006 13.9808C17.8199 13.9967 17.539 14.0279 17.2584 14.0252C16.5663 14.0186 16.2059 13.6908 16.1715 13.0047C16.1447 12.4745 16.1447 11.9434 16.1715 11.4133C16.2055 10.7497 16.4437 10.4656 17.0984 10.397C17.8216 10.3203 18.5488 10.2886 19.2757 10.3023C19.9506 10.316 20.3102 10.6963 20.3066 11.3866C20.2993 11.9494 20.2416 12.5103 20.1342 13.0627C20.0266 13.6378 19.6813 13.9051 19.0919 13.9467C18.7633 13.97 18.4309 13.9509 18.1002 13.9509L18.1006 13.9808ZM17.4035 12.6353H18.8221C18.8605 12.2923 18.8945 11.9879 18.9378 11.6L17.4035 11.5322V12.6353Z" fill="#FA9C19"/>
<path d="M10.1768 12.2171C10.2099 11.8875 10.2308 11.5388 10.2834 11.1945C10.3432 10.805 10.5369 10.5042 10.9507 10.4199C11.6826 10.2708 12.4185 10.1443 13.1702 10.2338C13.8266 10.3119 14.1827 10.5921 14.2737 11.2485C14.3345 11.7398 14.3264 12.2374 14.2499 12.7265C14.1732 13.2558 13.7993 13.5738 13.2685 13.6434C12.628 13.7273 11.9838 13.794 11.3393 13.8337C10.7163 13.8723 10.3392 13.5535 10.2315 12.932C10.1923 12.7044 10.1949 12.4694 10.1768 12.2171ZM12.8667 11.5605L11.3809 11.4619C11.4041 11.8325 11.4219 12.1182 11.4424 12.4453L12.8665 12.3018L12.8667 11.5605Z" fill="#FA9C19"/>
</g>
<defs>
<clipPath id="clip0_46_912">
<rect width="24" height="22.7692" fill="white" transform="translate(0.553711 0.615356)"/>
</clipPath>
</defs>
</svg>
