<svg width="14" height="16" viewBox="0 0 14 16" fill="none" xmlns="http://www.w3.org/2000/svg">
<g clip-path="url(#clip0_46_692)">
<path d="M1.27692 0.004825C2.08059 0.203612 2.89495 0.34992 3.69403 0.570971C4.73605 0.858816 5.72765 1.27388 6.69633 1.75892C6.99121 1.90682 7.30137 2.02928 7.61153 2.13105C8.02253 2.26623 8.37547 2.5 8.7498 2.69879C8.76661 2.70833 8.78647 2.71469 8.79869 2.72742C9.09358 3.05343 9.5061 3.12181 9.88043 3.27607C10.3327 3.46373 10.8124 3.60526 11.2204 3.86925C11.7047 4.18254 12.2792 4.28432 12.733 4.66122C12.9576 4.84729 13.2555 4.76141 13.5214 4.69144C13.7338 4.63578 13.7536 4.64373 13.7139 4.86319C13.6711 5.10014 13.6528 5.31801 13.8667 5.485C13.9156 5.52316 13.9309 5.59632 13.9416 5.66311C14.0286 6.17519 14.021 6.68249 13.8789 7.18503C13.83 7.35837 13.7414 7.47605 13.5657 7.51263C13.4343 7.54125 13.3121 7.60009 13.2051 7.68279C12.7284 8.05651 12.1784 8.27279 11.6222 8.47158C11.4954 8.5177 11.4022 8.5829 11.3441 8.7133C11.1486 9.15064 10.7926 9.42417 10.4198 9.67543C10.2303 9.80425 10.0729 9.9601 9.966 10.1668C9.90794 10.2782 9.82085 10.3259 9.70167 10.3163C9.56569 10.3036 9.47555 10.3704 9.40679 10.4881C9.30442 10.6614 9.20053 10.8348 9.08746 11.0017C8.97287 11.1687 8.8262 11.2769 8.61076 11.2689C8.34338 11.2594 8.24407 11.49 8.16157 11.6872C8.07906 11.8844 7.96141 12.0338 7.80557 12.1611C7.53055 12.3837 7.24331 12.5841 6.94537 12.7717C6.52826 13.0357 6.17073 13.3824 5.78265 13.6878C5.43124 13.9645 5.08441 14.2491 4.68563 14.4591C4.45492 14.5799 4.23338 14.7246 4.09128 14.9648C4.0317 15.065 3.96447 15.0825 3.87738 14.9982C3.79335 14.9155 3.68945 14.8709 3.57944 14.8296C3.37165 14.7533 3.18525 14.7755 3.0126 14.9266C2.89953 15.0252 2.76814 15.0856 2.61687 15.1015C2.48395 15.1158 2.38616 15.1906 2.30213 15.2987C2.16462 15.4784 2.01489 15.6486 1.87891 15.8299C1.80251 15.9301 1.74904 15.946 1.65431 15.8474C1.44957 15.6343 1.43276 15.6391 1.21886 15.8585C1.01412 16.0668 0.884255 16.0462 0.758968 15.7774C0.70702 15.6645 0.662711 15.5484 0.613819 15.4339C0.595484 15.391 0.583261 15.3496 0.597012 15.3003C0.755912 14.7087 0.949953 14.141 1.34262 13.6623C1.73223 13.1884 2.17532 12.7622 2.51145 12.2406C2.61076 12.0863 2.74827 11.9655 2.89189 11.8589C3.02329 11.7619 3.14858 11.6665 3.16691 11.4804C3.17302 11.4248 3.20969 11.3755 3.2647 11.3723C3.44193 11.3612 3.52291 11.2387 3.60542 11.0988C3.65736 11.0113 3.73681 10.9365 3.81779 10.8761C4.31588 10.5119 4.72536 10.0396 5.20358 9.65158C5.66806 9.27468 6.18143 8.9757 6.67188 8.64015C7.58555 8.01675 8.57868 7.52376 9.44193 6.81926C9.62833 6.66818 9.62681 6.66977 9.40832 6.57117C9.08594 6.42486 8.82467 6.20222 8.65507 5.87939C8.57257 5.72354 8.46714 5.69333 8.32963 5.78397C8.14629 5.90324 7.98433 5.9271 7.84377 5.71082C7.81626 5.66788 7.74904 5.64721 7.69556 5.62812C7.53513 5.57246 7.42665 5.46591 7.35332 5.30847C7.32123 5.2385 7.27081 5.17648 7.22497 5.11446C7.15927 5.02699 7.09663 5.01268 7.00649 5.10014C6.76814 5.33233 6.64285 5.32438 6.42589 5.06198C6.30213 4.91249 6.19824 4.7471 6.08517 4.58807C5.91863 4.35111 5.68334 4.31613 5.47096 4.50537C5.40068 4.56739 5.33192 4.57534 5.24484 4.55944C4.72994 4.4672 4.42436 4.09985 4.16462 3.67205C4.06684 3.51143 3.98739 3.33809 3.83765 3.21723C3.77654 3.16793 3.7139 3.1075 3.63445 3.12817C3.29067 3.21564 2.94079 3.09955 2.58937 3.19974C2.23185 3.30152 1.89724 3.02162 1.8346 2.64154C1.81474 2.5175 1.7964 2.39504 1.75209 2.27736C1.66195 2.03564 1.53208 1.8607 1.25095 1.84321C1.06913 1.83208 0.89495 1.75733 0.740633 1.6476C0.655072 1.58558 0.571038 1.51402 0.552704 1.40906C0.511451 1.16256 0.347967 1.03693 0.153926 0.947872C-0.0355317 0.861996 -0.0019182 0.698195 0.0103049 0.545527C0.0225279 0.396039 0.144759 0.396039 0.251711 0.378545C0.532841 0.334017 0.810916 0.284718 1.02024 0.0509437C1.08594 -0.0222101 1.18678 0.0064153 1.27692 0.004825Z" fill="#1F1F25"/>
</g>
<defs>
<clipPath id="clip0_46_692">
<rect width="14" height="16" fill="white"/>
</clipPath>
</defs>
</svg>
