<?xml version="1.0" encoding="utf-8"?>
<!-- Generator: Adobe Illustrator 27.6.1, SVG Export Plug-In . SVG Version: 6.00 Build 0)  -->
<svg version="1.1" id="Calque_1" xmlns="http://www.w3.org/2000/svg" xmlns:xlink="http://www.w3.org/1999/xlink" x="0px" y="0px"
	 viewBox="0 0 48 48" style="enable-background:new 0 0 48 48;" xml:space="preserve">
<style type="text/css">
	.st0{fill:none;stroke:#B29186;stroke-width:4;}
	.st1{fill:#B29186;}
	.st2{fill:#FFFFFF;filter:url(#Adobe_OpacityMaskFilter);}
	
		.st3{mask:url(#path-2-outside-1_262_611_00000074442328992048655830000011389380449390078337_);fill:none;stroke:#B29186;stroke-width:2;}
	.st4{fill:#B29186;stroke:#B29186;}
</style>
<path class="st0" d="M45.8,23.2c0.7,6.1-0.8,11.3-3.7,15.1c-2.9,3.8-7.4,6.5-13.1,7.3c-5.8,0.9-12.9,0.4-18.4-2.4
	c-2.7-1.4-4.9-3.3-6.5-6c-1.5-2.6-2.4-6-2.2-10.5C2.5,17.4,5,10.8,9.3,6.9c4.2-3.9,10.6-5.7,19.8-4.5c9.4,1.2,12.7,3.5,14.3,6.3
	c0.8,1.5,1.3,3.4,1.6,5.8c0.2,1.2,0.3,2.5,0.4,4l0,0.1C45.5,20,45.6,21.5,45.8,23.2z"/>
<path class="st1" d="M36.8,32.2c0,0.2,0,0.4,0,0.5l0,0.4c0,0.2,0,0.4,0,0.6c0,0.2-0.1,0.3-0.2,0.4c-0.1,0.1-0.3,0.2-0.4,0.2
	c-0.3,0-0.5,0.1-0.8,0.1l-0.3,0c-0.2,0-0.4,0-0.6,0c-0.1,0-0.3,0-0.4,0c-0.1,0-0.3,0-0.4,0c-0.1,0-0.2,0-0.4,0c-0.2,0-0.3,0-0.5,0
	c-0.2,0-0.4,0-0.5,0.1c-0.1,0-0.2,0-0.3,0.1c-0.1,0-0.2,0-0.4,0c-0.2,0-0.4,0-0.5,0c-0.2,0-0.3,0.1-0.5,0.1c-0.1,0-0.2,0-0.4,0.1
	L29.3,35c-0.1,0-0.3,0-0.4,0c-0.2,0-0.3,0-0.5,0l-0.2,0c-0.2,0-0.4,0.1-0.7,0.1l-0.2,0c-0.2,0-0.4,0-0.6,0.1l-0.8,0.1
	c-0.2,0-0.3,0-0.5,0.1c-0.1,0-0.2,0-0.4,0c-0.1,0-0.2,0-0.4,0c-0.2,0-0.3,0-0.5,0c-0.1,0-0.3,0-0.4,0c-0.1,0-0.3,0-0.4,0
	c-0.2,0-0.3,0-0.5,0.1c-0.1,0-0.2,0-0.3,0L21,35.6c-0.1,0-0.3,0-0.4,0l-0.4,0c-0.1,0-0.3,0-0.4,0c-0.2,0-0.3,0-0.5,0
	c-0.2,0-0.3,0-0.5,0c-0.1,0-0.3,0-0.4,0c-0.2,0-0.3,0-0.5,0c-0.1,0-0.3,0-0.4,0l-1.7,0c-0.1,0-0.2,0-0.4,0c-0.2,0-0.3,0-0.5,0h0
	c-0.3,0-0.5,0-0.7-0.1c-0.2-0.1-0.4-0.2-0.6-0.4c-0.2-0.2-0.3-0.3-0.4-0.5c-0.1-0.2-0.2-0.4-0.2-0.7L13,33.7c0-0.2-0.1-0.3-0.1-0.5
	c0-0.1,0-0.3,0-0.4c0-0.1,0-0.3,0-0.4l0-0.4c0-0.2,0-0.3,0-0.5c0-0.1,0-0.3,0-0.4c0-0.1,0-0.3,0-0.4l0-0.8c0-0.1,0-0.3,0-0.4
	c0-0.1,0-0.3,0-0.4c0-0.1,0-0.2,0-0.4c0-0.2,0-0.3,0-0.5c0-0.2,0-0.4,0-0.5l0-0.4c0-0.1,0-0.3,0-0.4c0-0.2,0-0.3,0-0.5
	c0-0.2,0-0.3-0.1-0.5c0-0.1,0-0.3-0.1-0.4c0-0.2,0-0.3,0-0.5c0-0.2,0-0.3,0-0.5l0-0.4c0-0.2,0-0.4,0-0.5c0-0.3,0-0.6,0-0.9l0-0.4
	c0-0.2,0-0.3,0-0.5c0-0.1,0-0.3,0-0.4c0-0.2,0-0.3,0-0.5l0.1-0.9c0-0.2,0-0.3,0-0.5c0-0.1,0-0.3,0-0.4c0-0.1,0-0.3,0.1-0.4
	c0-0.2,0.1-0.3,0.1-0.5c0-0.2,0-0.3,0-0.5c0-0.1,0-0.3,0-0.4c0-0.1,0-0.3,0.1-0.4c0-0.2,0.1-0.3,0.1-0.5l0.1-0.9
	c0-0.3,0.1-0.5,0.2-0.8c0.1-0.2,0.1-0.5,0.3-0.7c0.1-0.2,0.2-0.4,0.4-0.6c0.2-0.2,0.3-0.4,0.5-0.6l0.2-0.2c0.1-0.1,0.2-0.3,0.4-0.3
	c0.1-0.1,0.3-0.2,0.5-0.2l0.2-0.1c0.2-0.1,0.5-0.2,0.7-0.3c0.2-0.1,0.5-0.1,0.8-0.1c0.3,0,0.6,0,0.9,0l0.4,0c0.2,0,0.3,0,0.5,0
	l0.9,0c0.2,0,0.3,0,0.5,0c0.2,0,0.3,0,0.5,0l0.5,0c0.2,0,0.3,0,0.5,0c0.1,0,0.3,0,0.4,0c0.2,0,0.3,0,0.5,0c0.1,0,0.3,0,0.4,0
	c0.2,0,0.3,0,0.5,0c0.2,0,0.3,0,0.5,0l0.4,0c0.2,0,0.3,0,0.5,0c0.1,0,0.3,0,0.4,0c0.1,0,0.3,0,0.4,0c0.2,0,0.3,0,0.5,0
	c0.2,0,0.3,0,0.5,0c0.1,0,0.3,0,0.4,0c0.2,0,0.3,0,0.5,0c0.1,0,0.3,0,0.4,0l0.9,0c0.1,0,0.3,0,0.4,0c0.1,0,0.3,0,0.4,0
	c0.1,0,0.3,0,0.4,0l0.4,0l0.4,0c0.2,0,0.3,0,0.5,0c0.1,0,0.3,0,0.4,0c0.1,0,0.3,0,0.4,0c0.3,0,0.5,0.1,0.8,0.1l0.1,0
	c0.2,0.1,0.5,0.1,0.6,0.2c0.1,0.1,0.3,0.2,0.4,0.4l0.2,0.2c0.2,0.2,0.4,0.4,0.6,0.7c0.1,0.2,0.3,0.4,0.3,0.6
	c0.1,0.2,0.1,0.5,0.1,0.8c0,0.1,0,0.3,0,0.4l0.1,1.3c0,0.2,0,0.3,0.1,0.5c0,0.1,0,0.3,0.1,0.4c0,0.1,0,0.3,0,0.4c0,0.2,0,0.3,0,0.5
	c0,0.2,0,0.3,0.1,0.5c0,0.1,0,0.3,0.1,0.4l0.1,0.9c0,0.1,0,0.3,0,0.4c0,0.2,0,0.3,0,0.5l0.1,1.8c0,0.2,0,0.4,0.1,0.7l0,0.3
	c0,0.1,0,0.3,0,0.4c0,0.2,0,0.4,0,0.5c0,0.2,0,0.3,0.1,0.5c0,0.1,0,0.3,0.1,0.4l0,0.4c0,0.2,0,0.3,0.1,0.5c0,0.2,0,0.3,0,0.5
	c0,0.2,0,0.3,0,0.5c0,0.1,0,0.3,0,0.4c0,0.2,0,0.3,0,0.5c0,0.2,0,0.3,0,0.5c0,0.2,0,0.3,0,0.5l0,0.4c0,0.2,0,0.4,0,0.5l0,0.5
	c0,0.2,0,0.3,0,0.5L36.8,32.2z M38,30.3l0-0.4c0-0.2,0-0.4,0-0.6l0-0.4c0-0.1,0-0.3,0-0.4c0-0.2,0-0.4,0-0.6c0-0.2,0-0.4-0.1-0.6
	c0-0.1,0-0.3,0-0.4c0-0.1,0-0.3,0-0.4c0-0.2,0-0.4,0-0.6c0-0.2,0-0.4-0.1-0.6l0-0.4c0-0.2,0-0.3-0.1-0.5c0-0.1,0-0.3-0.1-0.4
	c0-0.2,0-0.3,0-0.5c0-0.2,0-0.3,0-0.5l0-0.3c0-0.2,0-0.4-0.1-0.6l-0.1-1.8c0-0.1,0-0.3,0-0.4c0-0.2,0-0.3,0-0.5l-0.1-0.9
	c0-0.2,0-0.3-0.1-0.5c0-0.1,0-0.3-0.1-0.4c0-0.1,0-0.3,0-0.4c0-0.2,0-0.3,0-0.5c0-0.2,0-0.3-0.1-0.5c0-0.1,0-0.3-0.1-0.4l-0.1-1.3
	c0-0.2,0-0.3,0-0.5c0-0.3-0.1-0.7-0.2-1c-0.1-0.3-0.3-0.6-0.5-1c-0.2-0.3-0.4-0.6-0.7-0.8l-0.1-0.1c-0.2-0.2-0.4-0.4-0.7-0.6
	c-0.3-0.2-0.6-0.3-1-0.4c-0.3-0.1-0.7-0.2-1.1-0.2c-0.2,0-0.3,0-0.5,0c-0.1,0-0.2,0-0.4,0c-0.2,0-0.3,0-0.5,0l-0.4,0l-0.4,0
	c-0.2,0-0.3,0-0.5,0c-0.1,0-0.3,0-0.4,0c-0.2,0-0.3,0-0.5,0l-0.9,0c-0.2,0-0.3,0-0.5,0c-0.1,0-0.3,0-0.4,0c-0.1,0-0.3,0-0.5,0
	c-0.1,0-0.3,0-0.4,0c-0.1,0-0.3,0-0.4,0c-0.2,0-0.3,0-0.5,0c-0.2,0-0.3,0-0.5,0c-0.1,0-0.3,0-0.4,0l-0.5,0c-0.2,0-0.3,0-0.5,0
	c-0.2,0-0.3,0-0.5,0c-0.2,0-0.3,0-0.5,0c-0.1,0-0.3,0-0.4,0c-0.2,0-0.4,0-0.5,0c-0.2,0-0.4,0-0.5,0l-0.4,0c-0.2,0-0.4,0-0.5,0
	c-0.1,0-0.3,0-0.4,0l-1,0c-0.2,0-0.4,0-0.6,0l-0.4,0c-0.3,0-0.6,0-1,0c-0.3,0-0.6,0.1-1,0.2c-0.3,0.1-0.6,0.2-0.9,0.3L14.7,11
	c-0.2,0.1-0.5,0.2-0.7,0.3c-0.2,0.2-0.4,0.3-0.6,0.5L13.3,12c-0.3,0.2-0.5,0.5-0.7,0.8c-0.2,0.2-0.4,0.5-0.5,0.7
	c-0.2,0.3-0.3,0.6-0.3,0.9c-0.1,0.3-0.2,0.6-0.2,1l-0.1,0.9c0,0.1,0,0.2-0.1,0.4c0,0.2-0.1,0.3-0.1,0.5c0,0.2,0,0.3,0,0.5
	c0,0.1,0,0.2,0,0.4c0,0.1,0,0.2-0.1,0.4c0,0.2-0.1,0.4-0.1,0.5c0,0.2,0,0.3,0,0.5c0,0.1,0,0.2,0,0.4l-0.1,0.9c0,0.1,0,0.3,0,0.4
	c0,0.2,0,0.3,0,0.5c0,0.2,0,0.3,0,0.5l0,0.4c0,0.3,0,0.7,0,1c0,0.2,0,0.4,0,0.6l0,0.4c0,0.1,0,0.3,0,0.4c0,0.2,0,0.4,0,0.6
	c0,0.2,0,0.4,0.1,0.6c0,0.1,0,0.3,0.1,0.4c0,0.2,0,0.3,0,0.5c0,0.2,0,0.3,0,0.5l0,0.4c0,0.2,0,0.3,0,0.5c0,0.1,0,0.3,0,0.4
	c0,0.2,0,0.3,0,0.4c0,0.2,0,0.3,0,0.5c0,0.1,0,0.3,0,0.4l0,0.8c0,0.2,0,0.3,0.1,0.5c0,0.1,0,0.2,0,0.4c0,0.2,0,0.3,0.1,0.5l0,0.3
	c0,0.1,0,0.2,0,0.3c0,0.2,0,0.3,0,0.5c0,0.2,0.1,0.4,0.1,0.5l0.1,0.3c0.1,0.4,0.2,0.7,0.4,1.1c0.2,0.3,0.4,0.6,0.7,0.9
	c0.3,0.3,0.6,0.4,1,0.6c0.3,0.1,0.7,0.2,1.1,0.2c0.1,0,0.2,0,0.3,0c0.2,0,0.3,0,0.5,0h0l1.7,0c0.2,0,0.3,0,0.5,0c0.1,0,0.3,0,0.4,0
	c0.2,0,0.3,0,0.5,0c0.1,0,0.3,0,0.4,0c0.1,0,0.2,0,0.4,0c0.2,0,0.3,0,0.5,0l0.4,0c0.1,0,0.3,0,0.4,0l1.7-0.1c0.2,0,0.3,0,0.5-0.1
	c0.1,0,0.2,0,0.3,0l0.4,0c0.2,0,0.3,0,0.5,0c0.1,0,0.2,0,0.4,0c0.2,0,0.3,0,0.5,0c0.2,0,0.3,0,0.5-0.1c0.1,0,0.2,0,0.4,0l0.8-0.1
	c0.2,0,0.4,0,0.7-0.1l0.2,0c0.2,0,0.5-0.1,0.7-0.1l0.2,0c0.1,0,0.3,0,0.4,0c0.2,0,0.3,0,0.5,0l0.9-0.1c0.1,0,0.3,0,0.4-0.1
	c0.1,0,0.3-0.1,0.4-0.1c0.1,0,0.3,0,0.4,0c0.2,0,0.3,0,0.5,0c0.1,0,0.3,0,0.4-0.1c0.1,0,0.3,0,0.4-0.1c0.1,0,0.2,0,0.4,0
	c0.2,0,0.3,0,0.5,0c0.2,0,0.3,0,0.5,0c0.1,0,0.3,0,0.4,0c0.2,0,0.4,0,0.6,0l0.3,0c0.3,0,0.6,0,0.9-0.1c0.5-0.1,0.9-0.3,1.2-0.7
	c0.3-0.4,0.5-0.8,0.5-1.3c0-0.2,0-0.4,0-0.5l0-0.4c0-0.2,0-0.3,0-0.5l0-1.4C38,30.7,38,30.5,38,30.3z"/>
<defs>
	<filter id="Adobe_OpacityMaskFilter" filterUnits="userSpaceOnUse" x="10" y="9" width="29" height="29">
		<feColorMatrix  type="matrix" values="1 0 0 0 0  0 1 0 0 0  0 0 1 0 0  0 0 0 1 0"/>
	</filter>
</defs>
<mask maskUnits="userSpaceOnUse" x="10" y="9" width="29" height="29" id="path-2-outside-1_262_611_00000074442328992048655830000011389380449390078337_">
	<rect x="10" y="9" class="st2" width="29" height="29"/>
	<path d="M36.8,32.2c0,0.2,0,0.4,0,0.5l0,0.4c0,0.2,0,0.4,0,0.6c0,0.2-0.1,0.3-0.2,0.4c-0.1,0.1-0.3,0.2-0.4,0.2
		c-0.3,0-0.5,0.1-0.8,0.1l-0.3,0c-0.2,0-0.4,0-0.6,0c-0.1,0-0.3,0-0.4,0c-0.1,0-0.3,0-0.4,0c-0.1,0-0.2,0-0.4,0c-0.2,0-0.3,0-0.5,0
		c-0.2,0-0.4,0-0.5,0.1c-0.1,0-0.2,0-0.3,0.1c-0.1,0-0.2,0-0.4,0c-0.2,0-0.4,0-0.5,0c-0.2,0-0.3,0.1-0.5,0.1c-0.1,0-0.2,0-0.4,0.1
		L29.3,35c-0.1,0-0.3,0-0.4,0c-0.2,0-0.3,0-0.5,0l-0.2,0c-0.2,0-0.4,0.1-0.7,0.1l-0.2,0c-0.2,0-0.4,0-0.6,0.1l-0.8,0.1
		c-0.2,0-0.3,0-0.5,0.1c-0.1,0-0.2,0-0.4,0c-0.1,0-0.2,0-0.4,0c-0.2,0-0.3,0-0.5,0c-0.1,0-0.3,0-0.4,0c-0.1,0-0.3,0-0.4,0
		c-0.2,0-0.3,0-0.5,0.1c-0.1,0-0.2,0-0.3,0L21,35.6c-0.1,0-0.3,0-0.4,0l-0.4,0c-0.1,0-0.3,0-0.4,0c-0.2,0-0.3,0-0.5,0
		c-0.2,0-0.3,0-0.5,0c-0.1,0-0.3,0-0.4,0c-0.2,0-0.3,0-0.5,0c-0.1,0-0.3,0-0.4,0l-1.7,0c-0.1,0-0.2,0-0.4,0c-0.2,0-0.3,0-0.5,0h0
		c-0.3,0-0.5,0-0.7-0.1c-0.2-0.1-0.4-0.2-0.6-0.4c-0.2-0.2-0.3-0.3-0.4-0.5c-0.1-0.2-0.2-0.4-0.2-0.7L13,33.7c0-0.2-0.1-0.3-0.1-0.5
		c0-0.1,0-0.3,0-0.4c0-0.1,0-0.3,0-0.4l0-0.4c0-0.2,0-0.3,0-0.5c0-0.1,0-0.3,0-0.4c0-0.1,0-0.3,0-0.4l0-0.8c0-0.1,0-0.3,0-0.4
		c0-0.1,0-0.3,0-0.4c0-0.1,0-0.2,0-0.4c0-0.2,0-0.3,0-0.5c0-0.2,0-0.4,0-0.5l0-0.4c0-0.1,0-0.3,0-0.4c0-0.2,0-0.3,0-0.5
		c0-0.2,0-0.3-0.1-0.5c0-0.1,0-0.3-0.1-0.4c0-0.2,0-0.3,0-0.5c0-0.2,0-0.3,0-0.5l0-0.4c0-0.2,0-0.4,0-0.5c0-0.3,0-0.6,0-0.9l0-0.4
		c0-0.2,0-0.3,0-0.5c0-0.1,0-0.3,0-0.4c0-0.2,0-0.3,0-0.5l0.1-0.9c0-0.2,0-0.3,0-0.5c0-0.1,0-0.3,0-0.4c0-0.1,0-0.3,0.1-0.4
		c0-0.2,0.1-0.3,0.1-0.5c0-0.2,0-0.3,0-0.5c0-0.1,0-0.3,0-0.4c0-0.1,0-0.3,0.1-0.4c0-0.2,0.1-0.3,0.1-0.5l0.1-0.9
		c0-0.3,0.1-0.5,0.2-0.8c0.1-0.2,0.1-0.5,0.3-0.7c0.1-0.2,0.2-0.4,0.4-0.6c0.2-0.2,0.3-0.4,0.5-0.6l0.2-0.2c0.1-0.1,0.2-0.3,0.4-0.3
		c0.1-0.1,0.3-0.2,0.5-0.2l0.2-0.1c0.2-0.1,0.5-0.2,0.7-0.3c0.2-0.1,0.5-0.1,0.8-0.1c0.3,0,0.6,0,0.9,0l0.4,0c0.2,0,0.3,0,0.5,0
		l0.9,0c0.2,0,0.3,0,0.5,0c0.2,0,0.3,0,0.5,0l0.5,0c0.2,0,0.3,0,0.5,0c0.1,0,0.3,0,0.4,0c0.2,0,0.3,0,0.5,0c0.1,0,0.3,0,0.4,0
		c0.2,0,0.3,0,0.5,0c0.2,0,0.3,0,0.5,0l0.4,0c0.2,0,0.3,0,0.5,0c0.1,0,0.3,0,0.4,0c0.1,0,0.3,0,0.4,0c0.2,0,0.3,0,0.5,0
		c0.2,0,0.3,0,0.5,0c0.1,0,0.3,0,0.4,0c0.2,0,0.3,0,0.5,0c0.1,0,0.3,0,0.4,0l0.9,0c0.1,0,0.3,0,0.4,0c0.1,0,0.3,0,0.4,0
		c0.1,0,0.3,0,0.4,0l0.4,0l0.4,0c0.2,0,0.3,0,0.5,0c0.1,0,0.3,0,0.4,0c0.1,0,0.3,0,0.4,0c0.3,0,0.5,0.1,0.8,0.1l0.1,0
		c0.2,0.1,0.5,0.1,0.6,0.2c0.1,0.1,0.3,0.2,0.4,0.4l0.2,0.2c0.2,0.2,0.4,0.4,0.6,0.7c0.1,0.2,0.3,0.4,0.3,0.6
		c0.1,0.2,0.1,0.5,0.1,0.8c0,0.1,0,0.3,0,0.4l0.1,1.3c0,0.2,0,0.3,0.1,0.5c0,0.1,0,0.3,0.1,0.4c0,0.1,0,0.3,0,0.4c0,0.2,0,0.3,0,0.5
		c0,0.2,0,0.3,0.1,0.5c0,0.1,0,0.3,0.1,0.4l0.1,0.9c0,0.1,0,0.3,0,0.4c0,0.2,0,0.3,0,0.5l0.1,1.8c0,0.2,0,0.4,0.1,0.7l0,0.3
		c0,0.1,0,0.3,0,0.4c0,0.2,0,0.4,0,0.5c0,0.2,0,0.3,0.1,0.5c0,0.1,0,0.3,0.1,0.4l0,0.4c0,0.2,0,0.3,0.1,0.5c0,0.2,0,0.3,0,0.5
		c0,0.2,0,0.3,0,0.5c0,0.1,0,0.3,0,0.4c0,0.2,0,0.3,0,0.5c0,0.2,0,0.3,0,0.5c0,0.2,0,0.3,0,0.5l0,0.4c0,0.2,0,0.4,0,0.5l0,0.5
		c0,0.2,0,0.3,0,0.5L36.8,32.2z M38,30.3l0-0.4c0-0.2,0-0.4,0-0.6l0-0.4c0-0.1,0-0.3,0-0.4c0-0.2,0-0.4,0-0.6c0-0.2,0-0.4-0.1-0.6
		c0-0.1,0-0.3,0-0.4c0-0.1,0-0.3,0-0.4c0-0.2,0-0.4,0-0.6c0-0.2,0-0.4-0.1-0.6l0-0.4c0-0.2,0-0.3-0.1-0.5c0-0.1,0-0.3-0.1-0.4
		c0-0.2,0-0.3,0-0.5c0-0.2,0-0.3,0-0.5l0-0.3c0-0.2,0-0.4-0.1-0.6l-0.1-1.8c0-0.1,0-0.3,0-0.4c0-0.2,0-0.3,0-0.5l-0.1-0.9
		c0-0.2,0-0.3-0.1-0.5c0-0.1,0-0.3-0.1-0.4c0-0.1,0-0.3,0-0.4c0-0.2,0-0.3,0-0.5c0-0.2,0-0.3-0.1-0.5c0-0.1,0-0.3-0.1-0.4l-0.1-1.3
		c0-0.2,0-0.3,0-0.5c0-0.3-0.1-0.7-0.2-1c-0.1-0.3-0.3-0.6-0.5-1c-0.2-0.3-0.4-0.6-0.7-0.8l-0.1-0.1c-0.2-0.2-0.4-0.4-0.7-0.6
		c-0.3-0.2-0.6-0.3-1-0.4c-0.3-0.1-0.7-0.2-1.1-0.2c-0.2,0-0.3,0-0.5,0c-0.1,0-0.2,0-0.4,0c-0.2,0-0.3,0-0.5,0l-0.4,0l-0.4,0
		c-0.2,0-0.3,0-0.5,0c-0.1,0-0.3,0-0.4,0c-0.2,0-0.3,0-0.5,0l-0.9,0c-0.2,0-0.3,0-0.5,0c-0.1,0-0.3,0-0.4,0c-0.1,0-0.3,0-0.5,0
		c-0.1,0-0.3,0-0.4,0c-0.1,0-0.3,0-0.4,0c-0.2,0-0.3,0-0.5,0c-0.2,0-0.3,0-0.5,0c-0.1,0-0.3,0-0.4,0l-0.5,0c-0.2,0-0.3,0-0.5,0
		c-0.2,0-0.3,0-0.5,0c-0.2,0-0.3,0-0.5,0c-0.1,0-0.3,0-0.4,0c-0.2,0-0.4,0-0.5,0c-0.2,0-0.4,0-0.5,0l-0.4,0c-0.2,0-0.4,0-0.5,0
		c-0.1,0-0.3,0-0.4,0l-1,0c-0.2,0-0.4,0-0.6,0l-0.4,0c-0.3,0-0.6,0-1,0c-0.3,0-0.6,0.1-1,0.2c-0.3,0.1-0.6,0.2-0.9,0.3L14.7,11
		c-0.2,0.1-0.5,0.2-0.7,0.3c-0.2,0.2-0.4,0.3-0.6,0.5L13.3,12c-0.3,0.2-0.5,0.5-0.7,0.8c-0.2,0.2-0.4,0.5-0.5,0.7
		c-0.2,0.3-0.3,0.6-0.3,0.9c-0.1,0.3-0.2,0.6-0.2,1l-0.1,0.9c0,0.1,0,0.2-0.1,0.4c0,0.2-0.1,0.3-0.1,0.5c0,0.2,0,0.3,0,0.5
		c0,0.1,0,0.2,0,0.4c0,0.1,0,0.2-0.1,0.4c0,0.2-0.1,0.4-0.1,0.5c0,0.2,0,0.3,0,0.5c0,0.1,0,0.2,0,0.4l-0.1,0.9c0,0.1,0,0.3,0,0.4
		c0,0.2,0,0.3,0,0.5c0,0.2,0,0.3,0,0.5l0,0.4c0,0.3,0,0.7,0,1c0,0.2,0,0.4,0,0.6l0,0.4c0,0.1,0,0.3,0,0.4c0,0.2,0,0.4,0,0.6
		c0,0.2,0,0.4,0.1,0.6c0,0.1,0,0.3,0.1,0.4c0,0.2,0,0.3,0,0.5c0,0.2,0,0.3,0,0.5l0,0.4c0,0.2,0,0.3,0,0.5c0,0.1,0,0.3,0,0.4
		c0,0.2,0,0.3,0,0.4c0,0.2,0,0.3,0,0.5c0,0.1,0,0.3,0,0.4l0,0.8c0,0.2,0,0.3,0.1,0.5c0,0.1,0,0.2,0,0.4c0,0.2,0,0.3,0.1,0.5l0,0.3
		c0,0.1,0,0.2,0,0.3c0,0.2,0,0.3,0,0.5c0,0.2,0.1,0.4,0.1,0.5l0.1,0.3c0.1,0.4,0.2,0.7,0.4,1.1c0.2,0.3,0.4,0.6,0.7,0.9
		c0.3,0.3,0.6,0.4,1,0.6c0.3,0.1,0.7,0.2,1.1,0.2c0.1,0,0.2,0,0.3,0c0.2,0,0.3,0,0.5,0h0l1.7,0c0.2,0,0.3,0,0.5,0c0.1,0,0.3,0,0.4,0
		c0.2,0,0.3,0,0.5,0c0.1,0,0.3,0,0.4,0c0.1,0,0.2,0,0.4,0c0.2,0,0.3,0,0.5,0l0.4,0c0.1,0,0.3,0,0.4,0l1.7-0.1c0.2,0,0.3,0,0.5-0.1
		c0.1,0,0.2,0,0.3,0l0.4,0c0.2,0,0.3,0,0.5,0c0.1,0,0.2,0,0.4,0c0.2,0,0.3,0,0.5,0c0.2,0,0.3,0,0.5-0.1c0.1,0,0.2,0,0.4,0l0.8-0.1
		c0.2,0,0.4,0,0.7-0.1l0.2,0c0.2,0,0.5-0.1,0.7-0.1l0.2,0c0.1,0,0.3,0,0.4,0c0.2,0,0.3,0,0.5,0l0.9-0.1c0.1,0,0.3,0,0.4-0.1
		c0.1,0,0.3-0.1,0.4-0.1c0.1,0,0.3,0,0.4,0c0.2,0,0.3,0,0.5,0c0.1,0,0.3,0,0.4-0.1c0.1,0,0.3,0,0.4-0.1c0.1,0,0.2,0,0.4,0
		c0.2,0,0.3,0,0.5,0c0.2,0,0.3,0,0.5,0c0.1,0,0.3,0,0.4,0c0.2,0,0.4,0,0.6,0l0.3,0c0.3,0,0.6,0,0.9-0.1c0.5-0.1,0.9-0.3,1.2-0.7
		c0.3-0.4,0.5-0.8,0.5-1.3c0-0.2,0-0.4,0-0.5l0-0.4c0-0.2,0-0.3,0-0.5l0-1.4C38,30.7,38,30.5,38,30.3z"/>
</mask>
<path class="st3" d="M36.8,32.2c0,0.2,0,0.4,0,0.5l0,0.4c0,0.2,0,0.4,0,0.6c0,0.2-0.1,0.3-0.2,0.4c-0.1,0.1-0.3,0.2-0.4,0.2
	c-0.3,0-0.5,0.1-0.8,0.1l-0.3,0c-0.2,0-0.4,0-0.6,0c-0.1,0-0.3,0-0.4,0c-0.1,0-0.3,0-0.4,0c-0.1,0-0.2,0-0.4,0c-0.2,0-0.3,0-0.5,0
	c-0.2,0-0.4,0-0.5,0.1c-0.1,0-0.2,0-0.3,0.1c-0.1,0-0.2,0-0.4,0c-0.2,0-0.4,0-0.5,0c-0.2,0-0.3,0.1-0.5,0.1c-0.1,0-0.2,0-0.4,0.1
	L29.3,35c-0.1,0-0.3,0-0.4,0c-0.2,0-0.3,0-0.5,0l-0.2,0c-0.2,0-0.4,0.1-0.7,0.1l-0.2,0c-0.2,0-0.4,0-0.6,0.1l-0.8,0.1
	c-0.2,0-0.3,0-0.5,0.1c-0.1,0-0.2,0-0.4,0c-0.1,0-0.2,0-0.4,0c-0.2,0-0.3,0-0.5,0c-0.1,0-0.3,0-0.4,0c-0.1,0-0.3,0-0.4,0
	c-0.2,0-0.3,0-0.5,0.1c-0.1,0-0.2,0-0.3,0L21,35.6c-0.1,0-0.3,0-0.4,0l-0.4,0c-0.1,0-0.3,0-0.4,0c-0.2,0-0.3,0-0.5,0
	c-0.2,0-0.3,0-0.5,0c-0.1,0-0.3,0-0.4,0c-0.2,0-0.3,0-0.5,0c-0.1,0-0.3,0-0.4,0l-1.7,0c-0.1,0-0.2,0-0.4,0c-0.2,0-0.3,0-0.5,0h0
	c-0.3,0-0.5,0-0.7-0.1c-0.2-0.1-0.4-0.2-0.6-0.4c-0.2-0.2-0.3-0.3-0.4-0.5c-0.1-0.2-0.2-0.4-0.2-0.7L13,33.7c0-0.2-0.1-0.3-0.1-0.5
	c0-0.1,0-0.3,0-0.4c0-0.1,0-0.3,0-0.4l0-0.4c0-0.2,0-0.3,0-0.5c0-0.1,0-0.3,0-0.4c0-0.1,0-0.3,0-0.4l0-0.8c0-0.1,0-0.3,0-0.4
	c0-0.1,0-0.3,0-0.4c0-0.1,0-0.2,0-0.4c0-0.2,0-0.3,0-0.5c0-0.2,0-0.4,0-0.5l0-0.4c0-0.1,0-0.3,0-0.4c0-0.2,0-0.3,0-0.5
	c0-0.2,0-0.3-0.1-0.5c0-0.1,0-0.3-0.1-0.4c0-0.2,0-0.3,0-0.5c0-0.2,0-0.3,0-0.5l0-0.4c0-0.2,0-0.4,0-0.5c0-0.3,0-0.6,0-0.9l0-0.4
	c0-0.2,0-0.3,0-0.5c0-0.1,0-0.3,0-0.4c0-0.2,0-0.3,0-0.5l0.1-0.9c0-0.2,0-0.3,0-0.5c0-0.1,0-0.3,0-0.4c0-0.1,0-0.3,0.1-0.4
	c0-0.2,0.1-0.3,0.1-0.5c0-0.2,0-0.3,0-0.5c0-0.1,0-0.3,0-0.4c0-0.1,0-0.3,0.1-0.4c0-0.2,0.1-0.3,0.1-0.5l0.1-0.9
	c0-0.3,0.1-0.5,0.2-0.8c0.1-0.2,0.1-0.5,0.3-0.7c0.1-0.2,0.2-0.4,0.4-0.6c0.2-0.2,0.3-0.4,0.5-0.6l0.2-0.2c0.1-0.1,0.2-0.3,0.4-0.3
	c0.1-0.1,0.3-0.2,0.5-0.2l0.2-0.1c0.2-0.1,0.5-0.2,0.7-0.3c0.2-0.1,0.5-0.1,0.8-0.1c0.3,0,0.6,0,0.9,0l0.4,0c0.2,0,0.3,0,0.5,0
	l0.9,0c0.2,0,0.3,0,0.5,0c0.2,0,0.3,0,0.5,0l0.5,0c0.2,0,0.3,0,0.5,0c0.1,0,0.3,0,0.4,0c0.2,0,0.3,0,0.5,0c0.1,0,0.3,0,0.4,0
	c0.2,0,0.3,0,0.5,0c0.2,0,0.3,0,0.5,0l0.4,0c0.2,0,0.3,0,0.5,0c0.1,0,0.3,0,0.4,0c0.1,0,0.3,0,0.4,0c0.2,0,0.3,0,0.5,0
	c0.2,0,0.3,0,0.5,0c0.1,0,0.3,0,0.4,0c0.2,0,0.3,0,0.5,0c0.1,0,0.3,0,0.4,0l0.9,0c0.1,0,0.3,0,0.4,0c0.1,0,0.3,0,0.4,0
	c0.1,0,0.3,0,0.4,0l0.4,0l0.4,0c0.2,0,0.3,0,0.5,0c0.1,0,0.3,0,0.4,0c0.1,0,0.3,0,0.4,0c0.3,0,0.5,0.1,0.8,0.1l0.1,0
	c0.2,0.1,0.5,0.1,0.6,0.2c0.1,0.1,0.3,0.2,0.4,0.4l0.2,0.2c0.2,0.2,0.4,0.4,0.6,0.7c0.1,0.2,0.3,0.4,0.3,0.6
	c0.1,0.2,0.1,0.5,0.1,0.8c0,0.1,0,0.3,0,0.4l0.1,1.3c0,0.2,0,0.3,0.1,0.5c0,0.1,0,0.3,0.1,0.4c0,0.1,0,0.3,0,0.4c0,0.2,0,0.3,0,0.5
	c0,0.2,0,0.3,0.1,0.5c0,0.1,0,0.3,0.1,0.4l0.1,0.9c0,0.1,0,0.3,0,0.4c0,0.2,0,0.3,0,0.5l0.1,1.8c0,0.2,0,0.4,0.1,0.7l0,0.3
	c0,0.1,0,0.3,0,0.4c0,0.2,0,0.4,0,0.5c0,0.2,0,0.3,0.1,0.5c0,0.1,0,0.3,0.1,0.4l0,0.4c0,0.2,0,0.3,0.1,0.5c0,0.2,0,0.3,0,0.5
	c0,0.2,0,0.3,0,0.5c0,0.1,0,0.3,0,0.4c0,0.2,0,0.3,0,0.5c0,0.2,0,0.3,0,0.5c0,0.2,0,0.3,0,0.5l0,0.4c0,0.2,0,0.4,0,0.5l0,0.5
	c0,0.2,0,0.3,0,0.5L36.8,32.2z M38,30.3l0-0.4c0-0.2,0-0.4,0-0.6l0-0.4c0-0.1,0-0.3,0-0.4c0-0.2,0-0.4,0-0.6c0-0.2,0-0.4-0.1-0.6
	c0-0.1,0-0.3,0-0.4c0-0.1,0-0.3,0-0.4c0-0.2,0-0.4,0-0.6c0-0.2,0-0.4-0.1-0.6l0-0.4c0-0.2,0-0.3-0.1-0.5c0-0.1,0-0.3-0.1-0.4
	c0-0.2,0-0.3,0-0.5c0-0.2,0-0.3,0-0.5l0-0.3c0-0.2,0-0.4-0.1-0.6l-0.1-1.8c0-0.1,0-0.3,0-0.4c0-0.2,0-0.3,0-0.5l-0.1-0.9
	c0-0.2,0-0.3-0.1-0.5c0-0.1,0-0.3-0.1-0.4c0-0.1,0-0.3,0-0.4c0-0.2,0-0.3,0-0.5c0-0.2,0-0.3-0.1-0.5c0-0.1,0-0.3-0.1-0.4l-0.1-1.3
	c0-0.2,0-0.3,0-0.5c0-0.3-0.1-0.7-0.2-1c-0.1-0.3-0.3-0.6-0.5-1c-0.2-0.3-0.4-0.6-0.7-0.8l-0.1-0.1c-0.2-0.2-0.4-0.4-0.7-0.6
	c-0.3-0.2-0.6-0.3-1-0.4c-0.3-0.1-0.7-0.2-1.1-0.2c-0.2,0-0.3,0-0.5,0c-0.1,0-0.2,0-0.4,0c-0.2,0-0.3,0-0.5,0l-0.4,0l-0.4,0
	c-0.2,0-0.3,0-0.5,0c-0.1,0-0.3,0-0.4,0c-0.2,0-0.3,0-0.5,0l-0.9,0c-0.2,0-0.3,0-0.5,0c-0.1,0-0.3,0-0.4,0c-0.1,0-0.3,0-0.5,0
	c-0.1,0-0.3,0-0.4,0c-0.1,0-0.3,0-0.4,0c-0.2,0-0.3,0-0.5,0c-0.2,0-0.3,0-0.5,0c-0.1,0-0.3,0-0.4,0l-0.5,0c-0.2,0-0.3,0-0.5,0
	c-0.2,0-0.3,0-0.5,0c-0.2,0-0.3,0-0.5,0c-0.1,0-0.3,0-0.4,0c-0.2,0-0.4,0-0.5,0c-0.2,0-0.4,0-0.5,0l-0.4,0c-0.2,0-0.4,0-0.5,0
	c-0.1,0-0.3,0-0.4,0l-1,0c-0.2,0-0.4,0-0.6,0l-0.4,0c-0.3,0-0.6,0-1,0c-0.3,0-0.6,0.1-1,0.2c-0.3,0.1-0.6,0.2-0.9,0.3L14.7,11
	c-0.2,0.1-0.5,0.2-0.7,0.3c-0.2,0.2-0.4,0.3-0.6,0.5L13.3,12c-0.3,0.2-0.5,0.5-0.7,0.8c-0.2,0.2-0.4,0.5-0.5,0.7
	c-0.2,0.3-0.3,0.6-0.3,0.9c-0.1,0.3-0.2,0.6-0.2,1l-0.1,0.9c0,0.1,0,0.2-0.1,0.4c0,0.2-0.1,0.3-0.1,0.5c0,0.2,0,0.3,0,0.5
	c0,0.1,0,0.2,0,0.4c0,0.1,0,0.2-0.1,0.4c0,0.2-0.1,0.4-0.1,0.5c0,0.2,0,0.3,0,0.5c0,0.1,0,0.2,0,0.4l-0.1,0.9c0,0.1,0,0.3,0,0.4
	c0,0.2,0,0.3,0,0.5c0,0.2,0,0.3,0,0.5l0,0.4c0,0.3,0,0.7,0,1c0,0.2,0,0.4,0,0.6l0,0.4c0,0.1,0,0.3,0,0.4c0,0.2,0,0.4,0,0.6
	c0,0.2,0,0.4,0.1,0.6c0,0.1,0,0.3,0.1,0.4c0,0.2,0,0.3,0,0.5c0,0.2,0,0.3,0,0.5l0,0.4c0,0.2,0,0.3,0,0.5c0,0.1,0,0.3,0,0.4
	c0,0.2,0,0.3,0,0.4c0,0.2,0,0.3,0,0.5c0,0.1,0,0.3,0,0.4l0,0.8c0,0.2,0,0.3,0.1,0.5c0,0.1,0,0.2,0,0.4c0,0.2,0,0.3,0.1,0.5l0,0.3
	c0,0.1,0,0.2,0,0.3c0,0.2,0,0.3,0,0.5c0,0.2,0.1,0.4,0.1,0.5l0.1,0.3c0.1,0.4,0.2,0.7,0.4,1.1c0.2,0.3,0.4,0.6,0.7,0.9
	c0.3,0.3,0.6,0.4,1,0.6c0.3,0.1,0.7,0.2,1.1,0.2c0.1,0,0.2,0,0.3,0c0.2,0,0.3,0,0.5,0h0l1.7,0c0.2,0,0.3,0,0.5,0c0.1,0,0.3,0,0.4,0
	c0.2,0,0.3,0,0.5,0c0.1,0,0.3,0,0.4,0c0.1,0,0.2,0,0.4,0c0.2,0,0.3,0,0.5,0l0.4,0c0.1,0,0.3,0,0.4,0l1.7-0.1c0.2,0,0.3,0,0.5-0.1
	c0.1,0,0.2,0,0.3,0l0.4,0c0.2,0,0.3,0,0.5,0c0.1,0,0.2,0,0.4,0c0.2,0,0.3,0,0.5,0c0.2,0,0.3,0,0.5-0.1c0.1,0,0.2,0,0.4,0l0.8-0.1
	c0.2,0,0.4,0,0.7-0.1l0.2,0c0.2,0,0.5-0.1,0.7-0.1l0.2,0c0.1,0,0.3,0,0.4,0c0.2,0,0.3,0,0.5,0l0.9-0.1c0.1,0,0.3,0,0.4-0.1
	c0.1,0,0.3-0.1,0.4-0.1c0.1,0,0.3,0,0.4,0c0.2,0,0.3,0,0.5,0c0.1,0,0.3,0,0.4-0.1c0.1,0,0.3,0,0.4-0.1c0.1,0,0.2,0,0.4,0
	c0.2,0,0.3,0,0.5,0c0.2,0,0.3,0,0.5,0c0.1,0,0.3,0,0.4,0c0.2,0,0.4,0,0.6,0l0.3,0c0.3,0,0.6,0,0.9-0.1c0.5-0.1,0.9-0.3,1.2-0.7
	c0.3-0.4,0.5-0.8,0.5-1.3c0-0.2,0-0.4,0-0.5l0-0.4c0-0.2,0-0.3,0-0.5l0-1.4C38,30.7,38,30.5,38,30.3z"/>
<path class="st4" d="M28.3,25.7c-0.1,0.2-0.1,0.4-0.2,0.6c-0.1,0.2-0.2,0.3-0.3,0.5c-0.1,0.2-0.2,0.3-0.4,0.4
	c-0.1,0.1-0.3,0.2-0.5,0.4c-0.2,0.1-0.3,0.2-0.5,0.3L26.1,28c-0.1,0.1-0.3,0.1-0.4,0.2c-0.1,0-0.2,0-0.4,0.1c-0.1,0-0.2,0-0.3,0
	c-0.1,0-0.2,0-0.3,0.1c-0.1,0-0.2,0.1-0.4,0.1c-0.2,0-0.4,0-0.6,0l-0.4,0c-0.2,0-0.4,0-0.5-0.1c-0.2-0.1-0.4-0.1-0.6-0.2l-0.1,0
	c-0.2-0.1-0.5-0.2-0.7-0.4c-0.2-0.1-0.4-0.3-0.6-0.5c-0.3-0.2-0.5-0.5-0.7-0.7c-0.2-0.2-0.3-0.4-0.4-0.6c-0.1-0.2-0.2-0.5-0.3-0.7
	c-0.1-0.2-0.1-0.4-0.1-0.7c0-0.2,0-0.5,0-0.7v0c0-0.2,0.1-0.4,0.1-0.6l0.1-0.3c0-0.2,0.1-0.3,0.1-0.5c0.1-0.2,0.2-0.4,0.4-0.6
	c0.1-0.2,0.3-0.4,0.5-0.6c0.2-0.2,0.4-0.3,0.5-0.5c0.2-0.2,0.5-0.3,0.8-0.5c0.2-0.1,0.5-0.2,0.8-0.2c0.2-0.1,0.4-0.1,0.6-0.1
	c0.1,0,0.2,0,0.2,0c0.1,0,0.3,0,0.4,0c0.1,0,0.2,0,0.3,0c0.1,0,0.3,0,0.4,0c0.1,0,0.3,0.1,0.4,0.2c0.1,0,0.2,0.1,0.2,0.1
	c0.2,0.1,0.4,0.2,0.6,0.3c0.2,0.1,0.4,0.2,0.5,0.4c0.2,0.2,0.4,0.3,0.5,0.4c0.2,0.2,0.3,0.3,0.5,0.5c0.1,0.2,0.3,0.4,0.4,0.6
	c0.1,0.2,0.2,0.4,0.3,0.6c0.1,0.2,0.1,0.4,0.2,0.7c0.1,0.2,0.1,0.4,0.1,0.7c0,0.2,0,0.4,0,0.7C28.4,25.3,28.3,25.5,28.3,25.7z
	 M29.3,23.4c-0.1-0.3-0.1-0.5-0.2-0.8c-0.1-0.3-0.2-0.5-0.4-0.8c-0.2-0.3-0.3-0.5-0.5-0.7c-0.2-0.2-0.4-0.5-0.6-0.7
	c-0.1-0.1-0.3-0.3-0.5-0.5c-0.2-0.1-0.4-0.3-0.6-0.4c-0.2-0.1-0.5-0.3-0.7-0.4L25.5,19c-0.2-0.1-0.4-0.2-0.6-0.2
	c-0.2-0.1-0.4-0.1-0.6-0.1c-0.1,0-0.2,0-0.2,0c-0.3,0-0.6,0-0.8,0c-0.3,0-0.5,0-0.9,0.1c-0.3,0.1-0.7,0.1-1,0.3
	c-0.4,0.2-0.7,0.4-1,0.6c-0.2,0.2-0.5,0.4-0.7,0.6c-0.2,0.2-0.4,0.5-0.6,0.7c-0.2,0.2-0.3,0.5-0.5,0.8c-0.1,0.2-0.2,0.4-0.2,0.7
	l-0.1,0.3c-0.1,0.3-0.1,0.5-0.2,0.8c0,0.4,0,0.7,0,1c0,0.4,0.1,0.7,0.2,0.9c0.1,0.3,0.2,0.6,0.4,0.9c0.2,0.3,0.4,0.6,0.5,0.8
	c0.2,0.3,0.5,0.5,0.8,0.8c0.2,0.2,0.5,0.4,0.8,0.6c0.3,0.2,0.6,0.3,0.9,0.5c0.3,0.1,0.5,0.2,0.8,0.3c0.2,0.1,0.5,0.1,0.7,0.1l0.4,0
	c0.2,0,0.4,0,0.6,0c0,0,0.1,0,0.1,0c0.2,0,0.4,0,0.6-0.1l0.2,0c0.1,0,0.2,0,0.2,0c0.2,0,0.4,0,0.6-0.1c0.2-0.1,0.4-0.1,0.6-0.2
	l0.2-0.1c0.2-0.1,0.5-0.3,0.7-0.4c0.2-0.1,0.4-0.3,0.6-0.5c0.2-0.2,0.4-0.4,0.5-0.6c0.2-0.2,0.3-0.4,0.4-0.7
	c0.1-0.2,0.2-0.5,0.3-0.8c0.1-0.2,0.1-0.5,0.2-0.9c0-0.3,0-0.6,0-0.9C29.5,24,29.4,23.8,29.3,23.4z"/>
<path class="st4" d="M32,16.3c-0.2,0.3-0.3,0.5-0.5,0.6C31.3,17,31.1,17,30.8,17c-0.2,0-0.5,0-0.7-0.1c-0.2-0.1-0.4-0.2-0.4-0.4
	c0-0.1,0-0.2-0.1-0.4c0-0.1,0-0.3,0.1-0.4c0-0.1,0.1-0.3,0.2-0.4c0.1-0.1,0.2-0.1,0.3-0.2c0.1,0,0.2-0.1,0.2-0.1l0,0
	c0.2-0.1,0.5-0.3,0.7-0.3c0,0,0,0,0,0c0.1,0,0.3,0.1,0.6,0.2c0.2,0.1,0.3,0.2,0.4,0.3c0.1,0.2,0.2,0.4,0.1,0.5
	C32.2,15.9,32.1,16.1,32,16.3z M32.2,13.9c-0.3-0.2-0.8-0.4-1.2-0.4c-0.4,0-0.8,0.2-1.2,0.4c-0.1,0-0.1,0.1-0.2,0.1
	c-0.2,0.1-0.4,0.2-0.5,0.3c-0.3,0.3-0.4,0.6-0.5,0.9c-0.1,0.3-0.1,0.6-0.1,0.9c0,0.2,0,0.6,0.2,0.9c0.2,0.4,0.5,0.7,0.9,0.9
	c0.3,0.2,0.7,0.2,1,0.2c0.1,0,0.2,0,0.3,0c0.4,0,0.8-0.1,1.2-0.3c0.4-0.2,0.7-0.6,0.9-1c0.2-0.4,0.3-0.7,0.3-1.1
	c0-0.4-0.1-0.8-0.3-1.1C32.8,14.3,32.5,14.1,32.2,13.9z"/>
</svg>
