<svg width="12" height="10" viewBox="0 0 12 10" fill="none" xmlns="http://www.w3.org/2000/svg">
<path d="M4.71451 9.99963C3.7744 9.99963 2.83435 10.0008 1.89424 9.99916C1.40007 9.99834 0.976003 9.82348 0.617132 9.49643C0.362436 9.26433 0.176203 8.98946 0.0771037 8.66164C0.0320258 8.51251 0.00954733 8.35986 0.00151065 8.20497C-0.000302131 8.16983 0.000241704 8.13452 0.000241704 8.09927C0.000241704 6.31212 0.000422983 4.52492 0 2.73778C0 2.55869 0.0202428 2.38247 0.0677981 2.20937C0.141941 1.93961 0.278202 1.70181 0.466731 1.49281C0.674053 1.263 0.917812 1.08044 1.21203 0.966095C1.39657 0.89435 1.588 0.854571 1.78638 0.84041C1.92524 0.83048 2.06391 0.833183 2.20271 0.833124C3.66013 0.832595 5.11761 0.832772 6.57503 0.832889C6.60917 0.832889 6.64325 0.831773 6.67733 0.837883C6.78591 0.857509 6.85818 0.926256 6.86193 1.03226C6.86725 1.1828 6.86785 1.33381 6.86151 1.48423C6.85673 1.59798 6.77032 1.67284 6.65201 1.68083C6.62597 1.6826 6.59968 1.68172 6.57352 1.68172C5.0376 1.68172 3.50163 1.68207 1.96572 1.6813C1.81925 1.68125 1.67537 1.69435 1.54081 1.7527C1.17674 1.91052 0.948569 2.17417 0.883913 2.5628C0.875152 2.61533 0.873641 2.66792 0.873641 2.72074C0.873641 4.51964 0.876179 6.31859 0.871888 8.11748C0.87068 8.61346 1.22713 8.98558 1.59175 9.10451C1.70933 9.14288 1.83043 9.15798 1.95394 9.15798C2.87791 9.15798 3.80189 9.15798 4.72587 9.15798C5.65184 9.15798 6.57787 9.15856 7.50384 9.15739C7.71853 9.15709 7.91836 9.10174 8.09378 8.97894C8.33747 8.8083 8.49893 8.58485 8.5457 8.29082C8.55592 8.22659 8.55519 8.16202 8.55525 8.0975C8.55549 7.46526 8.55525 6.83296 8.55573 6.20072C8.55573 6.13814 8.55876 6.0755 8.56329 6.0131C8.56969 5.9249 8.63882 5.85099 8.72904 5.83495C8.76052 5.82936 8.79297 5.82643 8.82499 5.82613C8.93769 5.82507 9.05044 5.82572 9.1632 5.82572C9.17124 5.82572 9.17927 5.8259 9.18737 5.82601C9.35233 5.82836 9.43089 5.92867 9.4301 6.06998C9.42629 6.75704 9.42702 7.44411 9.42883 8.13117C9.42998 8.57362 9.28967 8.96672 8.9986 9.30599C8.70305 9.65049 8.33615 9.88494 7.87642 9.96837C7.76748 9.98812 7.65798 10.0023 7.54674 9.99958C7.52861 9.99911 7.51048 9.99975 7.49242 9.99975C6.56645 9.99975 5.64042 9.99975 4.71445 9.99975V9.99952L4.71451 9.99963Z" fill="#f6f4f4"/>
<path d="M11.9988 2.09139C11.9988 2.64137 11.9985 3.19135 11.9989 3.74139C11.9991 3.89175 11.9337 4.00874 11.8119 4.09823C11.6666 4.20505 11.4352 4.20188 11.2955 4.08472C11.2665 4.06045 11.2381 4.03548 11.2111 4.00927C10.8608 3.669 10.5107 3.3285 10.1606 2.98799C10.1506 2.97829 10.1407 2.9686 10.1307 2.95896C10.0994 2.92896 10.0682 2.929 10.037 2.95908C9.61707 3.36728 9.19716 3.77559 8.77732 4.18384C7.77395 5.15959 6.77051 6.13527 5.76708 7.11096C5.74859 7.12894 5.73052 7.14757 5.71022 7.16349C5.6281 7.22801 5.52791 7.23047 5.44253 7.16978C5.42156 7.15485 5.40259 7.13693 5.3841 7.11901C5.14904 6.89085 4.91664 6.66005 4.6785 6.435C4.551 6.31449 4.55565 6.18827 4.67735 6.07023C6.09791 4.69193 7.51641 3.31157 8.93528 1.93157C9.01105 1.85789 9.01377 1.87293 8.93691 1.79813C8.57846 1.44934 8.21995 1.10061 7.8612 0.752109C7.79177 0.684655 7.73443 0.610913 7.71322 0.514842C7.65908 0.270231 7.83909 0.0307895 8.09517 0.00646344C8.14327 0.00199779 8.19137 0 8.23965 0C9.3185 0.000117517 10.3974 5.87585e-05 11.4763 5.87585e-05C11.5165 5.87585e-05 11.5567 0.00434813 11.5967 0.00499448C11.7808 0.00787365 12.0016 0.187557 11.9999 0.441394C11.9962 0.991374 11.9988 1.54135 11.9988 2.09139Z" fill="#f6f4f4"/>
</svg>
