<svg width="41" height="41" viewBox="0 0 41 41" fill="none" xmlns="http://www.w3.org/2000/svg">
<g clip-path="url(#clip0_46_1283)">
<path d="M8.01501 40.3084C7.67892 40.3427 7.33947 40.2971 7.0243 40.1755C6.70915 40.0537 6.42721 39.8594 6.20145 39.6081C4.37872 37.7218 2.57709 35.815 0.796556 33.8879C0.256965 33.3025 0.333827 32.7891 0.928593 32.1292C3.08919 29.7313 5.25337 27.3367 7.42112 24.9452C13.1442 18.6379 19.3867 12.854 25.5301 6.96991C27.6211 4.96709 29.6859 2.93696 31.7566 0.913162C32.0764 0.588874 32.5065 0.396591 32.9615 0.374461C33.4165 0.35233 33.8632 0.501973 34.2129 0.793694C34.9284 1.39405 35.6069 2.04075 36.2762 2.69326C37.4642 3.85132 38.6899 4.97833 39.7935 6.2134C40.9062 7.45833 41.1965 8.72954 39.9421 10.1077C33.5414 17.1418 26.8404 23.8751 19.8393 30.3075C16.3899 33.4638 12.8974 36.5732 9.42595 39.7054C9.01751 40.0742 8.62106 40.4599 8.01501 40.3084ZM33.1598 2.52445C22.6652 12.624 12.0723 22.3647 2.53273 33.2381C4.42614 34.8699 6.08616 36.8053 8.31045 38.1237L9.57438 36.7556C9.43935 36.6483 9.26783 36.5277 9.11605 36.3869C8.93767 36.2243 8.76964 36.0506 8.61295 35.867C8.17754 35.3499 8.10897 34.8395 8.41305 34.4819C8.75344 34.0818 9.28528 34.0643 9.87617 34.5031C10.2802 34.8026 10.6299 35.1755 11.0308 35.5403C11.2196 35.3776 11.4072 35.2322 11.5751 35.0669C11.7567 34.8883 11.9199 34.6909 11.9846 34.6194C11.588 34.1575 11.2526 33.7693 10.9197 33.379C10.6001 33.004 10.4448 32.5938 10.7629 32.1499C11.0137 31.7995 11.4784 31.7485 11.9871 32.0587C12.52 32.3836 13.0131 32.7737 13.5771 33.1736L14.6826 32.1258C14.4754 31.9568 14.2812 31.7723 14.1018 31.5739C13.4647 30.7373 12.8306 29.8974 12.2253 29.0379C12.1671 28.9663 12.1243 28.8837 12.0992 28.7951C12.0742 28.7062 12.0675 28.6134 12.0796 28.5219C12.0917 28.4307 12.1224 28.3427 12.1698 28.2636C12.2171 28.1845 12.2801 28.1158 12.3548 28.0618C12.6824 27.7943 13.037 27.8578 13.3499 28.1071C13.5595 28.2796 13.757 28.4664 13.941 28.6659C14.6241 29.3836 15.301 30.1071 16.0317 30.8832L16.6469 30.2215C16.2883 29.7952 15.9536 29.4462 15.6763 29.0555C15.2911 28.5133 15.3165 28.0051 15.6897 27.6655C16.0341 27.3524 16.5069 27.364 17.0053 27.7598C17.4045 28.077 17.7619 28.447 18.2351 28.883L19.1946 27.6595C18.859 27.3836 18.5383 27.09 18.2339 26.7799C17.8022 26.3004 17.7668 25.8402 18.0641 25.474C18.3663 25.102 18.8253 25.0521 19.3744 25.3683C19.6302 25.5277 19.8738 25.7059 20.1031 25.9013C20.3071 26.0629 20.4977 26.2414 20.6863 26.4055L21.946 25.0974C21.3346 24.3168 20.7159 23.5392 20.1127 22.7498C19.9121 22.4874 19.672 22.2146 19.5956 21.9099C19.5205 21.6051 19.5632 21.2832 19.7148 21.0083C19.9422 20.668 20.3559 20.6832 20.6833 20.9235C20.9657 21.1475 21.2308 21.3921 21.4765 21.6555C22.1538 22.3318 22.8244 23.0148 23.5436 23.7417L24.4779 22.837C24.294 22.57 24.157 22.3769 24.0262 22.1797C23.8667 21.9603 23.7208 21.7314 23.5891 21.4943C23.3208 20.9573 23.3909 20.4236 23.7357 20.1702C24.0872 19.9121 24.5984 20.0033 25.0314 20.4345C25.3221 20.7237 25.5819 21.0437 25.8888 21.3873L26.8035 20.5195C26.6376 20.2447 26.5132 20.0437 26.3928 19.8386C26.2601 19.6375 26.1411 19.4275 26.0364 19.2104C25.7934 18.6308 25.9184 18.095 26.3321 17.836C26.7335 17.5841 27.1765 17.6728 27.6297 18.1144C27.8612 18.3397 28.0729 18.5854 28.377 18.9115L29.0393 18.2395C28.4903 17.4465 28.0013 16.7613 27.5361 16.0605C27.1697 15.5082 27.1557 15.0176 27.4593 14.7389C27.7972 14.4273 28.3372 14.4904 28.8397 14.9373C29.1272 15.2037 29.3987 15.4868 29.6527 15.7852C29.9226 16.0901 30.174 16.4117 30.4636 16.7632L31.5978 15.4963C31.3117 14.8971 31.0513 14.3886 30.8239 13.8656C30.6328 13.4261 30.715 13.0161 31.1356 12.7578C31.578 12.4859 31.9519 12.7017 32.2543 13.0383C32.5136 13.3271 32.7411 13.6441 33.0382 14.0187L33.8505 13.1634C33.6865 12.9269 33.5635 12.7581 33.4496 12.5819C33.3183 12.3798 33.1852 12.178 33.0702 11.9664C32.7464 11.3681 32.7559 10.9074 33.0852 10.6448C33.4507 10.3539 33.8878 10.4813 34.41 11.0378C34.6277 11.2698 34.8367 11.51 35.0835 11.7838L35.8158 10.9474C35.4523 10.3861 35.1361 9.90894 34.832 9.42436C34.5912 9.07856 34.3788 8.71391 34.1965 8.33396C34.0403 7.96163 34.0262 7.53308 34.4193 7.27493C34.5848 7.16434 34.7826 7.11255 34.9809 7.12788C35.1794 7.14323 35.367 7.2248 35.5133 7.35951C35.6998 7.5125 35.874 7.67967 36.0346 7.85958C36.4624 8.32443 36.8818 8.79703 37.3496 9.31668L38.1834 8.37289L33.1598 2.52445Z" fill="#B29186"/>
</g>
<defs>
<clipPath id="clip0_46_1283">
<rect width="40.5442" height="40" fill="white" transform="translate(0.28125 0.37207)"/>
</clipPath>
</defs>
</svg>
