<svg width="40" height="39" viewBox="0 0 40 39" fill="none" xmlns="http://www.w3.org/2000/svg">
<path d="M21.9507 23.2279C24.5745 23.2233 26.7371 23.7422 28.7721 24.7635C29.2112 24.9597 29.6026 25.2487 29.9192 25.6108C30.1197 25.8708 30.2295 26.4355 30.0783 26.6713C29.8996 26.9502 29.3909 27.1617 29.0368 27.1468C28.6135 27.1298 28.1741 26.8871 27.7892 26.6614C24.8011 24.9083 21.621 24.7061 18.3245 25.4721C16.5692 25.8801 15.191 26.8941 14.0557 28.2637C13.929 28.4166 13.8166 28.5819 13.6903 28.7347C13.4255 29.0536 13.1695 29.5601 12.6813 29.2275C12.2032 28.9022 12.3219 28.364 12.5877 27.9298C13.7051 26.1027 15.24 24.7708 17.2759 24.0429C18.7827 23.5312 20.3597 23.2563 21.9507 23.2279Z" fill="#14141A"/>
<path d="M13.514 19.665C12.3615 19.6117 11.3231 19.2285 10.536 18.2998C10.2035 17.9071 9.94122 17.4329 10.3864 17.0173C10.8187 16.6134 11.2002 16.9504 11.5475 17.2972C12.9968 18.7434 14.8691 18.2943 15.5549 16.3483C15.6493 16.0805 15.7369 15.8099 15.8451 15.5481C16.0159 15.1364 16.3477 14.8299 16.7655 15.0202C16.9154 15.1048 17.0446 15.2218 17.1438 15.3625C17.2431 15.5032 17.3098 15.6642 17.3392 15.8338C17.3946 16.3744 17.3135 16.9202 17.1034 17.4213C16.8933 17.9225 16.5609 18.363 16.1366 18.7024C15.3896 19.332 14.51 19.6081 13.514 19.665Z" fill="#14141A"/>
<path d="M26.527 18.4598C25.8573 18.3979 25.2124 18.1753 24.6471 17.8109C24.0818 17.4465 23.6128 16.9511 23.2799 16.3666C23.0634 15.9698 22.9628 15.5201 22.9896 15.0689C23.0017 14.8162 23.3234 14.4201 23.5548 14.3821C23.7709 14.3459 24.1866 14.6451 24.2779 14.886C24.5188 15.5231 24.8325 16.0538 25.4295 16.4093C26.4774 17.0332 27.153 16.8532 27.7085 15.7775C28.1567 14.9101 28.5901 14.6188 29.0907 14.8486C29.5587 15.0636 29.6696 15.6747 29.396 16.5328C29.0137 17.7338 28.0387 18.451 26.527 18.4598Z" fill="#14141A"/>
<path d="M10.2848 13.111C9.77378 12.86 9.27885 12.5775 8.8028 12.2653C8.6744 12.1722 8.67799 11.7844 8.75055 11.5772C8.78471 11.4815 9.16036 11.4091 9.32735 11.4716C10.99 12.0962 12.219 11.2768 13.3766 10.2673C13.7136 9.97326 13.9484 9.5643 14.244 9.21989C14.5343 8.88198 14.884 8.57104 15.3368 8.87839C15.7799 9.17977 15.6493 9.64421 15.4512 10.0291C14.6497 11.5863 13.2633 12.3534 11.6357 12.7632C11.2249 12.8667 10.7991 12.908 10.3795 12.978C10.3478 13.0223 10.3162 13.0666 10.2848 13.111Z" fill="#14141A"/>
<path d="M28.0788 12.1069C26.5718 12.0007 25.3365 11.5073 24.3906 10.4155C24.1736 10.1921 24.0146 9.91904 23.9273 9.62011C23.8809 9.39267 23.9818 9.00827 24.1503 8.8995C24.3189 8.79073 24.7719 8.84588 24.8912 8.99563C25.8816 10.2384 27.2025 10.5425 28.6945 10.4812C29.1349 10.4631 29.5922 10.5925 29.6226 11.1444C29.6506 11.6533 29.283 11.8957 28.8311 11.9965C28.5559 12.0579 28.2724 12.0796 28.0788 12.1069Z" fill="#14141A"/>
<path d="M0.707549 14.0976C-1.06007 21.0449 0.487792 27.1737 5.31135 32.3159C5.43703 32.4488 5.56492 32.5816 5.69298 32.7096C8.28397 35.3006 11.5113 36.9004 14.0687 38.0137C15.1661 38.493 20.798 39.0751 22.3216 38.8482C31.3771 37.4958 37.3363 32.3884 39.4118 23.8437C39.8082 22.1699 40.0056 20.4552 39.9999 18.7352C40.0096 14.6832 38.3035 9.97253 34.7851 6.44446C34.423 6.14496 34.062 5.8347 33.713 5.53401C32.9559 4.88327 32.1735 4.20952 31.3549 3.63494C25.1018 -0.766184 18.6049 -0.79081 12.0449 1.54302C6.10552 3.65471 2.29127 7.87947 0.707549 14.0976ZM12.0704 3.62331C17.8261 1.23159 23.6011 0.809492 29.2335 4.39169C30.2635 5.04738 33.009 7.26648 33.4413 7.59978L33.469 7.62025L33.492 7.64572C35.6894 9.97597 38.2056 14.2367 38.1501 18.6167C38.1318 20.4895 37.8783 22.3525 37.3956 24.1621C35.9647 29.3626 32.5442 33.1526 26.9382 35.7447C21.2394 38.4735 13.0665 35.7149 10.892 34.2794C8.4885 32.6362 6.38544 30.5919 4.67479 28.236C1.99194 24.4376 1.38987 18.9776 2.83067 13.9864C3.50545 11.6818 4.68462 9.5562 6.28268 7.76378C7.88073 5.97136 9.85764 4.55702 12.07 3.62331H12.0704Z" fill="#14141A"/>
</svg>
