<svg width="40" height="41" viewBox="0 0 40 41" fill="none" xmlns="http://www.w3.org/2000/svg">
<g clip-path="url(#clip0_46_1290)">
<path d="M38.6214 13.4883C38.5003 12.9965 38.2503 12.6188 37.9177 12.425C37.7914 12.3509 37.6513 12.3037 37.5059 12.2864C37.3607 12.2691 37.2133 12.282 37.0734 12.3244C36.6227 12.4531 36.1172 12.8526 36.2697 14.0244C36.3889 14.9415 36.4877 15.8785 36.5835 16.7836C36.6243 17.1698 36.6658 17.556 36.7076 17.9423C36.5546 20.5116 36.3851 22.8281 35.8656 25.1348C35.1869 28.1478 33.7846 30.9879 31.698 33.5758C30.0056 35.675 27.843 36.9758 25.0865 37.5525C22.8052 38.0131 20.4653 38.1047 18.1552 37.8243C16.2774 37.6091 14.0757 37.2672 11.984 36.3618C9.5624 35.3136 7.84837 34.0758 6.58958 32.4662C4.72704 30.0779 3.3957 27.3164 2.68516 24.3679C2.20415 22.4958 2.07594 20.55 2.30722 18.6307C2.6616 15.8063 3.62083 13.0308 5.32572 9.8955C5.92586 8.78887 6.73693 7.81167 7.71277 7.01958C10.0879 5.08805 12.4402 3.76163 14.904 2.96426C16.6562 2.3971 18.59 2.21882 20.8182 2.41941C22.2989 2.55269 23.7378 2.99621 25.1293 3.42526C25.4411 3.52132 25.7531 3.61736 26.0656 3.71036L26.2095 3.75417C26.4758 3.84506 26.7505 3.90865 27.0295 3.94395C27.2145 3.9603 27.5987 3.85722 27.6718 3.63736C27.7064 3.5117 27.7134 3.37995 27.6918 3.25134C27.6705 3.12272 27.6212 3.00037 27.5478 2.89287C27.3591 2.65969 27.1152 2.47774 26.8385 2.36367C25.9082 1.97608 25.067 1.63124 24.1895 1.33796C22.519 0.777505 20.7682 0.496399 19.007 0.505846C16.1823 0.529533 13.4106 1.27834 10.9553 2.68104C10.0485 3.18922 9.24717 3.66147 8.50541 4.12482C6.32186 5.48877 4.73512 7.0863 3.65454 9.00863C2.35766 11.3152 1.46179 13.4409 0.915389 15.5066C0.267677 17.9558 0.0349757 19.8655 0.16071 21.698C0.378746 24.8701 1.38517 28.0109 3.23862 31.2998C3.90635 32.5142 4.71999 33.642 5.6613 34.6574C7.62972 36.745 10.1238 38.222 13.2843 39.1717C15.715 39.9049 18.2391 40.2777 20.7771 40.2785C21.8694 40.2782 22.9608 40.2098 24.0448 40.0741C28.2989 39.5423 31.5743 37.6922 34.0569 34.418C36.0435 31.7982 37.3594 29.1763 38.08 26.4034C38.9011 23.242 39.206 19.7987 39.0124 15.8769C38.9602 15.0697 38.8293 14.2697 38.6214 13.4883Z" fill="#B29186"/>
<path d="M22.581 7.94176C22.7554 7.96001 22.9297 7.97855 23.1041 7.9949C23.2607 8.0095 23.6783 8.04875 23.8178 7.64101C23.8771 7.48744 23.875 7.31682 23.8119 7.16478C23.7489 7.01275 23.6297 6.89104 23.4794 6.82509C23.2037 6.68501 22.9115 6.57999 22.6098 6.51241C21.2296 6.22058 19.8116 6.15515 18.4107 6.31866C15.7973 6.62713 13.603 7.30659 11.7023 8.39608C9.17719 9.84338 7.61504 11.6911 6.92662 14.0457C6.82124 14.4067 6.67952 14.7696 6.55422 15.0898C5.47558 17.7745 5.20673 20.7186 5.78108 23.5557C6.18691 25.5609 6.68768 27.1797 7.81231 28.563C10.3946 31.7387 13.3312 33.5305 16.7899 34.0409C17.5356 34.151 18.3018 34.1878 19.0412 34.2232C19.3782 34.2395 19.7265 34.2562 20.0673 34.2797H20.0773H20.081C22.7532 34.2243 25.3766 33.5495 27.7463 32.3079C28.3145 32.0237 28.838 31.657 29.2998 31.2196C30.7601 29.7783 31.6804 28.4119 32.1955 26.9196C32.2994 26.6187 32.4366 26.3199 32.5695 26.0308C32.6102 25.9422 32.651 25.8536 32.6909 25.7647C33.8809 23.1167 33.8703 20.2216 32.6582 16.9142C32.5569 16.6361 32.3984 16.3827 32.1932 16.1704C32.0612 16.0222 31.892 15.9124 31.7032 15.8526C31.5144 15.7929 31.313 15.7853 31.1204 15.8307C30.9368 15.8897 30.7727 15.9981 30.6461 16.1441C30.5195 16.2901 30.4351 16.4681 30.4021 16.6589C30.3208 17.006 30.381 17.3924 30.4341 17.7335L30.4461 17.8101C30.5079 18.2124 30.5828 18.6186 30.6551 19.0116C30.778 19.6786 30.9052 20.3685 30.9701 21.0497C31.0895 22.1748 30.9393 23.3122 30.5325 24.3673C30.1704 25.3176 29.7605 26.2486 29.3043 27.1571C28.5501 28.617 27.7243 29.5735 26.7051 30.1644C25.9068 30.6278 25.0055 30.9571 24.1338 31.2757L23.7904 31.4016C22.2496 31.9698 20.5918 31.971 18.979 31.9719H18.9667C16.4866 31.9719 14.5978 31.4216 13.0237 30.2408C12.7673 30.0482 12.4976 29.8681 12.2368 29.6938C11.9482 29.5008 11.6497 29.3013 11.3727 29.0873C9.87082 27.9269 8.88956 26.6202 8.37296 25.0908C7.76478 23.2923 7.12828 20.9065 7.60592 18.3997C7.763 17.6486 7.95821 16.9063 8.19084 16.1754C8.33227 15.704 8.4783 15.2165 8.60156 14.7309C9.10537 12.7474 10.3265 11.2111 12.3351 10.0343C15.0445 8.44672 18.0736 7.70919 21.3302 7.83736C21.7462 7.85386 22.1702 7.89855 22.581 7.94176Z" fill="#B29186"/>
<path d="M15.5366 15.0709C16.1948 14.6915 16.8929 14.387 17.6182 14.1632C18.3664 13.9396 19.1537 13.7883 19.9149 13.642C20.1111 13.6042 20.3074 13.5666 20.503 13.5276C20.7523 13.4781 21.1291 13.4031 21.1368 12.9606C21.1427 12.6134 20.9132 12.3806 20.5232 12.3375C20.3183 12.3145 20.112 12.3063 19.9059 12.3131C18.5218 12.3654 17.1296 12.6885 15.525 13.3304C14.1273 13.8672 12.9887 14.9234 12.345 16.2801C11.1854 18.6697 11.1167 21.2256 12.1415 23.8767C12.43 24.6229 12.8641 25.5754 13.6666 26.3258C15.4646 28.0067 17.6521 28.8586 20.1688 28.8586C20.2882 28.8586 20.4078 28.862 20.5276 28.8658C20.6378 28.8694 20.7497 28.8732 20.8619 28.8732C20.9961 28.8742 21.1302 28.867 21.2635 28.8513C23.0173 28.6338 24.3903 28.0433 25.4613 27.0461C27.472 25.1738 28.3814 22.6665 28.1649 19.5937C28.1343 19.1605 27.922 18.7324 27.735 18.3548C27.5659 18.0141 27.1793 17.754 26.7936 17.9445C26.5326 18.1048 26.3417 18.3583 26.2596 18.6543C26.2094 18.8605 26.1921 19.0735 26.2087 19.2851C26.2113 19.3883 26.2138 19.4858 26.2087 19.5811C26.1958 19.8159 26.19 20.0545 26.1843 20.2856C26.1853 20.8166 26.1442 21.3468 26.0615 21.871C25.5453 24.6262 23.9991 26.244 21.4661 26.6798C19.6816 26.9864 17.9257 26.6526 16.2478 25.6871C15.6008 25.3148 14.9431 24.8748 14.5146 24.181C13.2622 22.1529 12.9527 19.9938 13.5946 17.7634C13.957 16.5013 14.6111 15.5951 15.5366 15.0709Z" fill="#B29186"/>
<path d="M32.5916 5.70131C32.613 5.58802 32.636 5.47475 32.6589 5.36161C32.7385 5.00783 32.7954 4.64935 32.8296 4.28832C32.877 3.64963 32.5825 3.42277 32.0916 3.26364C31.9027 3.19668 31.6993 3.1814 31.5025 3.21931C31.3055 3.25722 31.1224 3.34697 30.9713 3.47941C29.5813 4.6454 28.1796 5.82703 26.8051 6.99126C26.3109 7.41039 26.1365 7.94687 26.26 8.67943C26.3391 9.15037 26.3882 9.63667 26.4356 10.107C26.4718 10.4645 26.5092 10.834 26.5595 11.1969C26.5989 11.482 26.5188 11.6753 26.2641 11.9099L26.1503 12.0146C25.4473 12.6618 24.7207 13.3308 24.0378 14.0228C22.8219 15.2548 21.5958 16.517 20.409 17.7376C19.8455 18.3176 19.2816 18.8973 18.7171 19.4767C18.3136 19.8906 18.3985 20.2093 18.541 20.4037C18.5936 20.482 18.6644 20.5461 18.7472 20.5906C18.8301 20.635 18.9225 20.6583 19.0164 20.6586C19.2084 20.6493 19.3929 20.5807 19.5445 20.462C19.8088 20.2651 20.0591 20.0499 20.2937 19.8181C21.6529 18.5296 23.0113 17.24 24.3688 15.9494L26.5753 13.8534C26.7976 13.6428 26.9561 13.541 27.2381 13.5527C28.442 13.5889 29.6656 13.588 30.8491 13.5867C31.185 13.5861 31.5209 13.5861 31.857 13.5867H31.8598C32.0669 13.5921 32.2724 13.5505 32.4613 13.4648C32.6501 13.3792 32.8171 13.2519 32.95 13.0923C33.9093 11.9926 34.9022 10.8895 35.8322 9.86118C36.289 9.35621 36.6842 8.82994 36.5071 7.94658C36.3472 7.15242 36.2401 6.80102 35.3505 6.79605C34.8861 6.79532 34.4152 6.81999 33.9599 6.84598C33.7022 6.86058 33.4445 6.87521 33.1866 6.88484C32.9784 6.89243 32.772 6.8908 32.5325 6.88875L32.3505 6.88729C32.3692 6.79591 32.3879 6.7063 32.4063 6.61842C32.4725 6.29988 32.5347 6.00102 32.5916 5.70131ZM34.7405 8.62102L34.7765 8.62364L32.2863 11.7885H28.1074C28.0953 11.7461 28.0821 11.7031 28.0689 11.6594C28.0079 11.4866 27.969 11.3067 27.9526 11.1241C27.9341 10.6409 27.935 10.1473 27.9357 9.67007C27.9357 9.38379 27.9367 9.09754 27.9332 8.81156C27.9297 8.52922 27.9707 8.30367 28.1812 8.12119C28.9682 7.43886 29.7524 6.75286 30.5847 6.02468L31.2875 5.41037C31.2804 5.51942 31.2744 5.5987 31.2626 5.67505C31.2291 5.89154 31.1914 6.10747 31.1538 6.32338C31.0824 6.73433 31.0084 7.15929 30.9636 7.5828C30.9241 7.95623 30.9761 8.21051 31.1275 8.38204C31.2788 8.55357 31.5179 8.63518 31.8845 8.64189C32.42 8.65211 32.9641 8.63678 33.4897 8.62233C33.7747 8.61459 34.0598 8.60686 34.3447 8.60277C34.4615 8.60248 34.5777 8.61023 34.7403 8.62161L34.7405 8.62102Z" fill="#B29186"/>
</g>
<defs>
<clipPath id="clip0_46_1290">
<rect width="39.1011" height="40" fill="white" transform="translate(0.00292969 0.37207)"/>
</clipPath>
</defs>
</svg>
