<svg width="25" height="20" viewBox="0 0 25 20" fill="none" xmlns="http://www.w3.org/2000/svg">
<g clip-path="url(#clip0_46_954)">
<path d="M0.843359 18.0443C0.861693 18.3758 0.92358 18.7032 1.02745 19.0183C1.1931 19.5427 1.39101 19.6318 1.90189 19.634L2.38404 19.636C3.88608 19.6422 5.43957 19.6481 6.96669 19.6463C7.11689 19.6432 7.2668 19.6317 7.41572 19.6118C7.57193 19.5895 7.72953 19.5785 7.8873 19.5789C8.13446 19.585 8.38695 19.6047 8.63102 19.6238C8.92898 19.6471 9.2363 19.6712 9.54133 19.6712C9.56089 19.6712 9.58039 19.6712 9.59983 19.6712C13.4147 19.6309 16.5 19.587 19.3095 19.5326C20.2911 19.5134 21.0042 19.1073 21.4897 18.2907C22.5546 16.4994 23.3815 14.477 24.1705 11.733C24.2885 11.2879 24.3791 10.836 24.4422 10.3797C24.4744 10.1759 24.5078 9.96523 24.5457 9.75984C24.5467 9.75428 24.5472 9.74854 24.5472 9.74279V9.08836C24.5472 9.07783 24.5455 9.06738 24.542 9.05746C24.4987 8.93303 24.4605 8.80174 24.4233 8.67457C24.3507 8.38043 24.2414 8.09677 24.0979 7.83033C23.636 7.05691 22.8577 6.61048 21.8471 6.53928C20.8945 6.47219 19.9236 6.4544 18.9852 6.43699C18.7473 6.43261 18.5095 6.42801 18.2717 6.42315C17.7937 6.41285 17.3074 6.41547 16.8372 6.41793C16.6561 6.41891 16.475 6.41966 16.2938 6.42021C16.5986 5.62709 16.7882 4.74464 16.9078 3.566C16.9781 2.87243 17.0239 1.96228 16.7515 1.07389C16.5588 0.445785 16.2556 0.236195 15.5935 0.270837C15.1475 0.283663 14.7223 0.463441 14.4011 0.77499C14.3268 0.84792 14.2521 0.920402 14.177 0.992481C13.7826 1.35575 13.4155 1.74785 13.0786 2.16558C12.6554 2.71848 12.2602 3.30581 11.8779 3.87394C11.7107 4.12245 11.5436 4.37098 11.3737 4.61739C10.5767 5.7726 9.6318 6.61382 8.48385 7.18815C8.39448 7.23706 8.29637 7.26764 8.19517 7.27806C8.09397 7.28848 7.99173 7.27854 7.89438 7.24886C7.05474 7.03208 6.34349 6.97949 5.65609 7.08305C5.12619 7.163 4.58125 7.21241 4.05434 7.25999C3.85102 7.27823 3.64788 7.29691 3.44492 7.31705C3.22883 7.33838 3.01242 7.35747 2.79606 7.37653C2.44729 7.40716 2.08664 7.43885 1.73234 7.48051C1.08525 7.55663 0.824957 7.80224 0.7007 8.45396L0.689203 8.51268C0.664892 8.6199 0.650048 8.72909 0.644892 8.83895C0.640545 9.07981 0.634421 9.32055 0.628353 9.56138C0.612232 10.1985 0.595443 10.8573 0.612831 11.5057C0.67514 13.8178 0.764385 16.1085 0.843359 18.0443ZM7.17184 8.06661C7.15201 9.77561 7.27211 11.4906 7.38848 13.1497C7.50441 14.804 7.62393 16.5136 7.60255 18.201H2.30246L2.30135 18.1904C2.29402 18.1224 2.28643 18.0523 2.28326 17.9835C2.22892 16.7051 2.17456 15.4268 2.12022 14.1486C2.06883 12.938 2.01754 11.7276 1.96628 10.5171C1.96139 10.4023 1.95687 10.2873 1.9527 10.1723C1.9383 9.79439 1.92354 9.40358 1.88867 9.01999C1.86422 8.75106 1.94472 8.64405 2.19659 8.61105C2.49993 8.57124 2.80299 8.53029 3.10579 8.48823C3.68197 8.4092 4.2777 8.32762 4.86466 8.25979C5.41068 8.1968 5.96856 8.15041 6.50815 8.10556C6.69852 8.08982 6.88891 8.07375 7.07928 8.05739C7.11046 8.05667 7.14158 8.05977 7.17201 8.06661H7.17184ZM15.8349 3.43628C15.7777 4.25483 15.5693 5.12363 15.1789 6.17026C15.0535 6.50675 14.9544 6.87968 15.0782 7.32747C15.0833 7.34627 15.0943 7.36296 15.1093 7.37523C15.1245 7.3875 15.1429 7.39474 15.1623 7.39594C15.2348 7.40031 15.3084 7.4056 15.3824 7.41089C15.5444 7.42246 15.7119 7.43448 15.8792 7.43822C16.3561 7.44733 16.8329 7.45374 17.3102 7.45985C18.3634 7.47343 19.4523 7.48718 20.5211 7.53659C21.0966 7.56858 21.664 7.68658 22.2051 7.88674C22.8679 8.12786 23.1875 8.63736 23.1552 9.40075C23.1052 10.5774 22.8153 11.8022 22.2429 13.2553C21.864 14.2169 21.436 15.2345 20.8548 16.5554C20.7208 16.8407 20.5677 17.1165 20.3966 17.3809C20.3441 17.4662 20.2917 17.5514 20.2404 17.6371C19.9836 18.0673 19.5826 18.3107 19.0486 18.3605C18.3246 18.428 17.4818 18.5006 16.6461 18.5074C14.7901 18.5226 12.9028 18.5202 11.0774 18.5176C10.5022 18.5169 9.92705 18.5164 9.35175 18.516C9.24995 18.516 9.14537 18.5069 9.0529 18.4982L9.01464 18.4948L8.20861 8.12323C8.34401 8.06261 8.47805 8.0047 8.61046 7.94727C8.94202 7.80378 9.2551 7.6683 9.5614 7.50521C10.79 6.85012 11.8221 5.81261 12.81 4.23996C13.3437 3.3906 14.009 2.41234 14.897 1.59625C15.0657 1.4348 15.2627 1.30633 15.4781 1.21732C15.6339 1.15788 15.6995 1.16678 15.727 1.18473C15.7644 1.20898 15.7882 1.28502 15.7959 1.40463C15.8539 2.08021 15.8669 2.75896 15.8349 3.43628Z" fill="#FA9C19"/>
<path d="M4.88961 8.42407C4.88464 8.42406 4.87967 8.42442 4.87475 8.42509C3.77447 8.58919 3.1043 9.21061 3.08156 10.0882C3.05937 10.9542 3.7656 11.6556 4.68937 11.6851C4.70749 11.6858 4.72496 11.6861 4.74262 11.6861C5.17408 11.6866 5.58952 11.5214 5.90424 11.2243C6.04869 11.0897 6.16494 10.9273 6.24619 10.7468C6.32746 10.5663 6.3721 10.3712 6.37745 10.1731C6.37266 9.69297 6.18224 9.23366 5.84661 8.89248C5.56114 8.59493 5.22117 8.42854 4.88961 8.42407ZM4.9513 10.2785C4.82686 10.4224 4.65068 10.437 4.42771 10.3223C4.23598 10.2235 4.17124 10.0815 4.23509 9.89982C4.27341 9.80583 4.32149 9.71613 4.37854 9.63235C4.39973 9.59807 4.42238 9.56142 4.44638 9.5215C4.48831 9.54802 4.52891 9.57264 4.56794 9.59634C4.68153 9.65824 4.7872 9.73381 4.88271 9.82142C4.97473 9.9155 5.10599 10.1003 4.9513 10.2785Z" fill="#FA9C19"/>
</g>
<defs>
<clipPath id="clip0_46_954">
<rect width="24" height="19.5088" fill="white" transform="translate(0.553711 0.245605)"/>
</clipPath>
</defs>
</svg>
