<svg xmlns="http://www.w3.org/2000/svg" width="25.894" height="25.894" viewBox="0 0 25.894 25.894">
  <g id="Groupe_113" data-name="Groupe 113" transform="translate(-480.534 -75.742)">
    <path id="Tracé_108" data-name="Tracé 108" d="M8.848,1.75h11.7a7.106,7.106,0,0,1,7.1,7.1v11.7a7.106,7.106,0,0,1-7.1,7.1H8.848a7.106,7.106,0,0,1-7.1-7.1V8.848A7.106,7.106,0,0,1,8.848,1.75Zm11.7,23.394a4.6,4.6,0,0,0,4.6-4.6V8.848a4.6,4.6,0,0,0-4.6-4.6H8.848a4.6,4.6,0,0,0-4.6,4.6v11.7a4.6,4.6,0,0,0,4.6,4.6Z" transform="translate(478.784 73.992)" fill="#637475"/>
    <path id="Tracé_109" data-name="Tracé 109" d="M16.742,10.685a5.961,5.961,0,0,1,.871.064,5.929,5.929,0,0,1,1.8,11.16,5.955,5.955,0,0,1-2.664.633,5.929,5.929,0,0,1,0-11.858Zm0,9.358a3.429,3.429,0,1,0-2.426-1A3.408,3.408,0,0,0,16.745,20.043Z" transform="translate(476.788 72.024)" fill="#637475"/>
    <circle id="Ellipse_23" data-name="Ellipse 23" cx="1.25" cy="1.25" r="1.25" transform="translate(499 81)" fill="#637475"/>
  </g>
</svg>
