<svg xmlns="http://www.w3.org/2000/svg" width="30.607" height="27.5" viewBox="0 0 30.607 27.5">
  <path id="eco" d="M24.93-1.252h0A1.973,1.973,0,0,1,26.742-.057a18.2,18.2,0,0,1,1.506,7.288,17.788,17.788,0,0,1-3.789,11.225,13.986,13.986,0,0,1-9.887,5.234,10.655,10.655,0,0,1-1.1.058,9.958,9.958,0,0,1-4.937-1.293,10.545,10.545,0,0,1-2.379-1.83,10.514,10.514,0,0,0-2.108,2.929,2.752,2.752,0,0,1-5.092-2.089A16.271,16.271,0,0,1,4.3,14.948a20.136,20.136,0,0,1,5.688-2.964q.421-.141.851-.266a11.459,11.459,0,0,0-5.8,1.96L3.309,14.844,3.1,12.769c-.029-.282-.023-.739-.012-1.354,0-.153.005-.3.005-.378a6.861,6.861,0,0,1,3.318-6.2A13.673,13.673,0,0,1,13.5,3.249h3.749a6.8,6.8,0,0,0,5.94-3.471A1.99,1.99,0,0,1,24.93-1.252Zm-11.46,22.5a8.147,8.147,0,0,0,.858-.046l.042,0c6.593-.479,11.378-6.353,11.378-13.967a16.236,16.236,0,0,0-.928-5.374,9.243,9.243,0,0,1-7.571,3.891H13.5A11.307,11.307,0,0,0,7.705,6.973,4.235,4.235,0,0,0,5.61,10.49a14.083,14.083,0,0,1,5.99-1.3h0a16.361,16.361,0,0,1,4.9.766,12.709,12.709,0,0,1,1.507.579,2.14,2.14,0,0,1,1.09.817A1.259,1.259,0,0,1,18,13.248a19.84,19.84,0,0,0-12.2,3.7,13.869,13.869,0,0,0-4.531,5.457.25.25,0,0,0,.138.322.246.246,0,0,0,.1.021.259.259,0,0,0,.234-.159,13.487,13.487,0,0,1,3.72-4.721l1.019-.853.789,1.069A7.827,7.827,0,0,0,13.47,21.248Z" transform="translate(1.859 1.752)" fill="#253738" stroke="rgba(0,0,0,0)" stroke-width="1"/>
</svg>
