<svg xmlns="http://www.w3.org/2000/svg" width="36.03" height="25.156" viewBox="0 0 36.03 25.156">
  <path id="eye" d="M16.242,3.25A18.894,18.894,0,0,1,26.388,6.21,19.892,19.892,0,0,1,33.4,13.935l0,.006a3.086,3.086,0,0,1,0,2.774l0,.006a19.891,19.891,0,0,1-7.011,7.724,18.87,18.87,0,0,1-20.293,0A19.892,19.892,0,0,1-.916,16.722l0-.006a3.086,3.086,0,0,1,0-2.774l0-.006A19.891,19.891,0,0,1,6.1,6.211,18.894,18.894,0,0,1,16.242,3.25ZM31.174,15.071A16.816,16.816,0,0,0,16.242,5.75,16.813,16.813,0,0,0,1.311,15.072a.577.577,0,0,0,0,.513,16.814,16.814,0,0,0,14.932,9.321,16.813,16.813,0,0,0,14.932-9.322A.577.577,0,0,0,31.174,15.071ZM16.242,5.957a9.371,9.371,0,1,1,0,18.742h0a9.371,9.371,0,0,1,0-18.742Zm0,16.242a6.871,6.871,0,1,0-5.914-10.373c1.7,1.252,3.9-.377,2.416-2.4l1.718-.5a6.636,6.636,0,1,1-4.63,4.646L10.29,11.9a6.869,6.869,0,0,0,5.952,10.3Z" transform="translate(1.773 -2.75)" fill="#253738" stroke="rgba(0,0,0,0)" stroke-width="1"/>
</svg>
