<svg xmlns="http://www.w3.org/2000/svg" width="19" height="32.5" viewBox="0 0 19 32.5">
  <path id="Icon_feather-facebook_-_Contour" data-name="Icon feather-facebook - Contour" d="M22.5,1.75H27A1.25,1.25,0,0,1,28.25,3V9A1.25,1.25,0,0,1,27,10.25H22.5a.25.25,0,0,0-.25.25v3.25H27A1.25,1.25,0,0,1,28.213,15.3l-1.5,6a1.25,1.25,0,0,1-1.213.947H22.25V33A1.25,1.25,0,0,1,21,34.25H15A1.25,1.25,0,0,1,13.75,33V22.25H10.5A1.25,1.25,0,0,1,9.25,21V15a1.25,1.25,0,0,1,1.25-1.25h3.25V10.5A8.76,8.76,0,0,1,22.5,1.75Zm3.25,2.5H22.5a6.257,6.257,0,0,0-6.25,6.25V15A1.25,1.25,0,0,1,15,16.25H11.75v3.5H15A1.25,1.25,0,0,1,16.25,21V31.75h3.5V21A1.25,1.25,0,0,1,21,19.75h3.524l.875-3.5H21A1.25,1.25,0,0,1,19.75,15V10.5A2.753,2.753,0,0,1,22.5,7.75h3.25Z" transform="translate(-9.25 -1.75)" fill="#637475"/>
</svg>
