<svg xmlns="http://www.w3.org/2000/svg" width="7" height="16" viewBox="0 0 7 16">
  <path id="Icon_awesome-info" data-name="Icon awesome-info" d="M4.48,13.52H.02A1.234,1.234,0,0,1-1.25,12.33V11.015A1.227,1.227,0,0,1-.076,9.828v-2.7A1.227,1.227,0,0,1-1.25,5.939V4.625A1.234,1.234,0,0,1,.02,3.434H3.306a1.234,1.234,0,0,1,1.27,1.191v5.2A1.227,1.227,0,0,1,5.75,11.015V12.33A1.234,1.234,0,0,1,4.48,13.52ZM.116,12.24H4.384V11.105H3.893a.663.663,0,0,1-.683-.64V4.715H.116V5.849H.607a.663.663,0,0,1,.683.64v3.975a.663.663,0,0,1-.683.64H.116ZM2.188,2.764A2.716,2.716,0,0,1-.608.142a2.716,2.716,0,0,1,2.8-2.622A2.716,2.716,0,0,1,4.983.142,2.716,2.716,0,0,1,2.188,2.764Zm0-3.963A1.389,1.389,0,0,0,.758.142a1.389,1.389,0,0,0,1.43,1.341A1.389,1.389,0,0,0,3.618.142,1.389,1.389,0,0,0,2.188-1.2Z" transform="translate(1.25 2.48)" fill="#fff"/>
</svg>
