<svg xmlns="http://www.w3.org/2000/svg" width="33.5" height="33.5" viewBox="0 0 33.5 33.5">
  <g id="Groupe_114" data-name="Groupe 114" transform="translate(-540.25 -72.25)">
    <path id="Tracé_111_-_Contour" data-name="Tracé 111 - Contour" d="M15-1.25A16.25,16.25,0,0,1,31.25,15,16.25,16.25,0,0,1,15,31.25,16.25,16.25,0,0,1-1.25,15,16.25,16.25,0,0,1,15-1.25Zm0,30A13.75,13.75,0,1,0,1.25,15,13.766,13.766,0,0,0,15,28.75Z" transform="translate(542 74)" fill="#637475" stroke="rgba(0,0,0,0)" stroke-width="1"/>
    <path id="Tracé_113_-_Contour" data-name="Tracé 113 - Contour" d="M-3531,516.25a16.141,16.141,0,0,1-9.411-3l-.848-.6.439-.943a13.845,13.845,0,0,1,4.135-5.256,9.917,9.917,0,0,1,5.973-2.067,9.894,9.894,0,0,1,5.834,1.964,13.663,13.663,0,0,1,4.111,5.018l.456.921-.816.625A16.1,16.1,0,0,1-3531,516.25Zm-7.062-4.449A13.656,13.656,0,0,0-3531,513.75a13.61,13.61,0,0,0,7.484-2.213c-1.756-2.935-4.388-4.657-7.2-4.657C-3533.621,506.88-3536.31,508.7-3538.062,511.8Z" transform="translate(4088 -411)" fill="#637475" stroke="rgba(0,0,0,0)" stroke-width="1"/>
    <path id="Tracé_112" data-name="Tracé 112" d="M5.5-1.25A6.75,6.75,0,1,1-1.25,5.5,6.758,6.758,0,0,1,5.5-1.25Zm0,11A4.25,4.25,0,1,0,1.25,5.5,4.255,4.255,0,0,0,5.5,9.75Z" transform="translate(551.5 79.63)" fill="#637475" stroke="rgba(0,0,0,0)" stroke-width="1"/>
  </g>
</svg>
