<svg xmlns="http://www.w3.org/2000/svg" xmlns:xlink="http://www.w3.org/1999/xlink" width="107.399" height="26.187" viewBox="0 0 107.399 26.187">
  <defs>
    <clipPath id="clip-path">
      <rect id="Rectangle_57" data-name="Rectangle 57" width="107.399" height="26.187" fill="none"/>
    </clipPath>
    <clipPath id="clip-path-2">
      <path id="Tracé_101" data-name="Tracé 101" d="M67.337,2.893a7.981,7.981,0,0,0-1.7,5.815v3.7a2.142,2.142,0,0,1-.025.324,2.626,2.626,0,0,1-.566,1.4,2.491,2.491,0,0,1-1.7.562H61.134V10.6H62.9a8.248,8.248,0,0,1,1.064.038,2.933,2.933,0,0,1,.89.328V9.127a8.1,8.1,0,0,0-.873-.143c-.246-.027-1.081-.018-1.081-.018H59.131V21.178h2V16.293h1.529l2.811,4.885h2.39l-3.022-5.06a3.437,3.437,0,0,0,2.814-3.262c.007-.184.012-.314.012-.314l-.006-4c0-.027-.145-2.849,1.2-4.3a6.987,6.987,0,0,1,6.507-2.051c2.834.638,4.077,2.246,4.028,5.216a9.413,9.413,0,0,1-3.144,6.727c-.721.722-1.325,1.329-1.9,1.91-1.165,1.171-2.222,2.235-3.924,3.917-2.524,2.494-4.475,4.475-4.494,4.494a1.017,1.017,0,0,0,.724,1.73H82.479a7.582,7.582,0,0,0,3.417-.729,5.274,5.274,0,0,0,2.267-2.1,6.3,6.3,0,0,0,.8-3.232,6.445,6.445,0,0,0-.8-3.259A5.34,5.34,0,0,0,85.9,14.723a7.433,7.433,0,0,0-3.417-.747h-1.6A9.966,9.966,0,0,1,79.4,16.057c-.218.231-.705.677-.91.882v6.391h2V15.61h1.986a4.335,4.335,0,0,1,3.286,1.2,4.611,4.611,0,0,1,1.142,3.321A3.254,3.254,0,0,1,85.765,23a4.411,4.411,0,0,1-3.286,1.159H80.493l-2.461-.009H69.092c.753-.755,1.7-1.7,2.758-2.745,1.707-1.688,2.768-2.755,3.936-3.93.576-.58,1.179-1.186,1.9-1.907a11.325,11.325,0,0,0,3.739-8.131C81.489,3.5,79.6,1.063,75.809.209A8.506,8.506,0,0,0,73.934,0a9.072,9.072,0,0,0-6.6,2.892" transform="translate(-59.131 -0.001)" fill="none"/>
    </clipPath>
    <linearGradient id="linear-gradient" x1="-0.959" y1="1" x2="-0.943" y2="1" gradientUnits="objectBoundingBox">
      <stop offset="0" stop-color="#25393a"/>
      <stop offset="0.327" stop-color="#1f765f"/>
      <stop offset="1" stop-color="#1f7961"/>
    </linearGradient>
  </defs>
  <g id="Groupe_47" data-name="Groupe 47" transform="translate(0 0)">
    <path id="Tracé_92" data-name="Tracé 92" d="M0,18.485V30.714H6.747V29.08H2V25.337H6.22V23.7H2V20.119H6.747V18.485Z" transform="translate(0 -9.537)" fill="#253738"/>
    <path id="Tracé_93" data-name="Tracé 93" d="M26.875,30.714h-2l-6.027-9.119v9.119h-2V18.485h2l6.027,9.1v-9.1h2Z" transform="translate(-8.69 -9.537)" fill="#253738"/>
    <path id="Tracé_94" data-name="Tracé 94" d="M48.051,18.522v1.634H44.8V30.733h-2V20.155H39.53V18.522Z" transform="translate(-20.396 -9.556)" fill="#253738"/>
    <path id="Tracé_95" data-name="Tracé 95" d="M125.381,31.26l1.985,5.676h-3.988Zm-1.16-2.425-4.375,12.229h2.091l.879-2.5h5.113l.879,2.5h2.108l-4.374-12.229Z" transform="translate(-61.835 -14.878)" fill="#253738"/>
    <path id="Tracé_96" data-name="Tracé 96" d="M152.486,28.835v9.1l-6.027-9.1h-2V41.064h2V31.945l6.027,9.119h2V28.835Z" transform="translate(-74.533 -14.878)" fill="#253738"/>
    <g id="Groupe_52" data-name="Groupe 52" transform="translate(0 0)">
      <g id="Groupe_51" data-name="Groupe 51" clip-path="url(#clip-path)">
        <path id="Tracé_97" data-name="Tracé 97" d="M170.083,40.643a3.551,3.551,0,0,1-1.514-1.2,3.035,3.035,0,0,1-.55-1.806h2.1a1.891,1.891,0,0,0,.61,1.273,2.164,2.164,0,0,0,1.522.5,2.345,2.345,0,0,0,1.582-.49,1.6,1.6,0,0,0,.567-1.264,1.383,1.383,0,0,0-.352-.981,2.367,2.367,0,0,0-.877-.585,13.23,13.23,0,0,0-1.454-.447,13.608,13.608,0,0,1-1.9-.628,3.142,3.142,0,0,1-1.247-.989,2.859,2.859,0,0,1-.516-1.789,3.18,3.18,0,0,1,.516-1.806,3.3,3.3,0,0,1,1.445-1.187,5.242,5.242,0,0,1,2.15-.413,4.481,4.481,0,0,1,2.847.869,3.2,3.2,0,0,1,1.23,2.382h-2.168a1.57,1.57,0,0,0-.619-1.118,2.29,2.29,0,0,0-1.5-.464,2.124,2.124,0,0,0-1.376.43,1.5,1.5,0,0,0-.533,1.239,1.258,1.258,0,0,0,.335.9,2.363,2.363,0,0,0,.851.559,13.294,13.294,0,0,0,1.411.447,14.806,14.806,0,0,1,1.935.653,3.227,3.227,0,0,1,1.273,1.006,2.894,2.894,0,0,1,.525,1.815,3.263,3.263,0,0,1-.49,1.72,3.532,3.532,0,0,1-1.428,1.3,4.706,4.706,0,0,1-2.21.49,5.35,5.35,0,0,1-2.168-.421" transform="translate(-86.69 -14.877)" fill="#253738"/>
        <path id="Tracé_98" data-name="Tracé 98" d="M190.2,30.469v3.584h4.217v1.634H190.2V39.43h4.744v1.634H188.2V28.835h6.747v1.634Z" transform="translate(-97.101 -14.877)" fill="#253738"/>
        <path id="Tracé_99" data-name="Tracé 99" d="M206.672,40.643a3.551,3.551,0,0,1-1.514-1.2,3.035,3.035,0,0,1-.55-1.806h2.1a1.891,1.891,0,0,0,.61,1.273,2.164,2.164,0,0,0,1.522.5,2.345,2.345,0,0,0,1.582-.49,1.6,1.6,0,0,0,.567-1.264,1.383,1.383,0,0,0-.352-.981,2.367,2.367,0,0,0-.877-.585,13.23,13.23,0,0,0-1.454-.447,13.607,13.607,0,0,1-1.9-.628,3.142,3.142,0,0,1-1.247-.989,2.86,2.86,0,0,1-.516-1.789,3.18,3.18,0,0,1,.516-1.806,3.3,3.3,0,0,1,1.445-1.187,5.242,5.242,0,0,1,2.15-.413,4.481,4.481,0,0,1,2.847.869,3.2,3.2,0,0,1,1.23,2.382h-2.168a1.57,1.57,0,0,0-.619-1.118,2.29,2.29,0,0,0-1.5-.464,2.124,2.124,0,0,0-1.376.43,1.5,1.5,0,0,0-.533,1.239,1.258,1.258,0,0,0,.335.9,2.364,2.364,0,0,0,.851.559,13.3,13.3,0,0,0,1.411.447,14.805,14.805,0,0,1,1.935.653,3.227,3.227,0,0,1,1.273,1.006,2.894,2.894,0,0,1,.525,1.815,3.263,3.263,0,0,1-.49,1.72,3.532,3.532,0,0,1-1.428,1.3,4.706,4.706,0,0,1-2.21.49,5.35,5.35,0,0,1-2.168-.421" transform="translate(-105.568 -14.877)" fill="#253738"/>
        <path id="Tracé_100" data-name="Tracé 100" d="M81.171,26.656V25.337h1.458L84.262,23.7H81.171V20.119h4.744V18.485H79.168V28.659Z" transform="translate(-40.847 -9.537)" fill="#1f7961"/>
      </g>
    </g>
    <g id="Groupe_54" data-name="Groupe 54" transform="translate(28.622 0)">
      <g id="Groupe_53" data-name="Groupe 53" clip-path="url(#clip-path-2)">
        <rect id="Rectangle_58" data-name="Rectangle 58" width="29.832" height="26.187" transform="translate(0 -0.001)" fill="url(#linear-gradient)"/>
      </g>
    </g>
  </g>
</svg>
